# Blender 4.4.3
# www.blender.org
mtllib Colchao.mtl
o Bed
v -2.729155 0.628794 1.761904
v -2.729155 0.628793 -1.761904
v 3.270845 0.611059 1.761904
v 3.270845 0.611058 -1.761904
v 2.270845 0.617590 -1.761904
v 1.270845 0.609816 -1.761904
v 0.270845 0.612653 -1.761904
v -0.729155 0.619464 -1.761904
v -1.729155 0.628793 -1.761904
v -1.729155 0.628794 1.761904
v -0.729155 0.619465 1.761904
v 0.270845 0.614571 1.761904
v 1.270845 0.615328 1.761904
v 2.270845 0.608940 1.761904
v -2.729155 1.451425 1.057142
v -2.729155 1.451425 0.352381
v -2.729155 1.451425 -0.352381
v -2.729155 1.451425 -1.057142
v 3.270845 0.609921 1.057142
v 3.270845 0.611059 0.352381
v 3.270845 0.611058 -0.352381
v 3.270845 0.611058 -1.057142
v 2.270845 1.407057 -1.057142
v 2.270845 1.405395 -0.352381
v 2.270845 1.386007 0.352381
v 2.270845 1.388594 1.057142
v 1.270845 1.394397 -1.057142
v 1.270845 1.406929 -0.352381
v 1.270845 1.395772 0.352381
v 1.270845 1.399221 1.057142
v 0.270845 1.397857 -1.057142
v 0.270845 1.406929 -0.352381
v 0.270845 1.395772 0.352381
v 0.270845 1.397935 1.057142
v -0.729155 1.410550 -1.057142
v -0.729155 1.410550 -0.352381
v -0.729155 1.410550 0.352381
v -0.729155 1.410550 1.057142
v -1.729155 1.451425 -1.057142
v -1.729155 1.451425 -0.352381
v -1.729155 1.451425 0.352381
v -1.729155 1.451425 1.057142
v -2.729155 1.370097 1.761904
v -2.729155 1.451425 1.678298
v -2.729155 1.427631 1.737416
v -2.729155 1.451425 -1.678298
v -2.729155 1.370075 -1.761904
v -2.729155 1.427625 -1.737416
v 3.187241 1.333720 1.678317
v 3.270845 1.252298 1.761904
v 3.246358 1.310801 1.737422
v 3.187380 1.340800 -1.678299
v 3.270845 1.252276 -1.761904
v 3.246399 1.312868 -1.737417
v -1.729155 1.451425 -1.678298
v -1.729155 1.370070 -1.761904
v -1.729155 1.427623 -1.737416
v -0.729155 1.410550 -1.678298
v -0.729155 1.326813 -1.761904
v -0.729155 1.386024 -1.737416
v 0.270845 1.355766 -1.678489
v 0.270845 1.266393 -1.761904
v 0.270845 1.327249 -1.737472
v 1.270845 1.340683 -1.678608
v 1.270845 1.249774 -1.761904
v 1.270845 1.311074 -1.737507
v 2.270845 1.310218 -1.761904
v 2.270845 1.395476 -1.678313
v 2.270845 1.369859 -1.737421
v 2.270845 1.337295 1.678581
v 2.270845 1.246744 1.761904
v 2.270845 1.307924 1.737499
v 1.270845 1.376852 1.678353
v 1.270845 1.290161 1.761904
v 1.270845 1.350215 1.737432
v 0.270845 1.370775 1.678378
v 0.270845 1.283428 1.761904
v 0.270845 1.343679 1.737440
v -0.729155 1.410550 1.678298
v -0.729155 1.326839 1.761904
v -0.729155 1.386032 1.737416
v -1.729155 1.370093 1.761904
v -1.729155 1.451425 1.678298
v -1.729155 1.427630 1.737416
v 3.187450 1.341891 -1.057142
v 3.270845 1.252290 -1.057142
v 3.246420 1.313192 -1.057142
v 3.187441 1.341754 -0.352381
v 3.270845 1.252298 -0.352381
v 3.246417 1.313154 -0.352381
v 3.187344 1.340141 0.352381
v 3.270845 1.252301 0.352381
v 3.246388 1.312683 0.352381
v 3.270845 1.237303 1.057142
v 3.187430 1.326606 1.057142
v 3.246414 1.298113 1.057142
v -1.809264 1.001990 1.814833
v -2.839305 1.002510 1.814833
v -2.839305 1.002499 -1.814833
v -1.809264 1.001978 -1.814833
v 3.340941 0.922466 1.088900
v 3.340941 0.930774 1.814833
v 2.310900 0.926823 1.814833
v 2.310900 0.963968 -1.814833
v 3.340941 0.930763 -1.814833
v 3.340941 0.930770 -1.088900
v -0.779223 0.973480 -1.814833
v 0.250818 0.938855 -1.814833
v 1.280859 0.928835 -1.814833
v 1.280859 0.952474 1.814833
v 0.250818 0.948616 1.814833
v -0.779223 0.973494 1.814833
v 3.340941 0.930774 -0.362967
v 3.340941 0.930776 0.362967
v -1.229155 0.625239 -1.761904
v -1.229155 0.625239 1.761904
v -1.229155 1.431229 -1.057142
v -1.229155 1.431229 -0.352381
v -1.229155 1.431229 0.352381
v -1.229155 1.431230 1.057142
v -1.229155 1.431229 -1.678298
v -1.229155 1.407307 -1.737416
v -1.229155 1.349521 -1.761904
v -1.229155 1.431230 1.678298
v -1.229155 1.407314 1.737416
v -1.229155 1.349545 1.761904
v -1.294243 0.988290 -1.814833
v -1.294243 0.988302 1.814833
v -2.459378 1.357331 1.315824
v -2.459378 1.708892 1.315824
v -2.470279 1.368542 -1.290623
v -2.470279 1.726626 -1.290623
v -1.369570 1.326651 1.326817
v -1.369570 1.667077 1.326817
v -1.365676 1.376615 -1.284792
v -1.365676 1.740523 -1.284792
v -1.738192 1.424447 -1.334843
v -2.095482 1.422902 -1.336744
v -2.097800 1.803822 -1.336368
v -1.735877 1.807027 -1.334468
v -2.093892 1.387527 1.373702
v -1.738437 1.373838 1.382250
v -1.736747 1.732108 1.381966
v -2.095571 1.753506 1.373419
v -2.480832 1.409307 0.795241
v -2.480832 1.783108 0.799346
v -1.355938 1.427671 0.790398
v -1.355938 1.808472 0.794479
v -1.781464 1.827927 0.603320
v -2.051952 1.820194 0.603320
v -2.479967 1.785623 -0.933165
v -1.356918 1.425529 -0.923037
v -2.479967 1.410006 -0.928638
v -1.356918 1.808335 -0.927537
v -1.781464 1.847784 -0.714978
v -2.051952 1.841117 -0.714978
v -2.428135 1.411797 -0.067516
v -1.397082 1.727444 -0.068609
v -1.793976 1.798048 -0.055899
v -2.039628 1.819042 -0.055955
v -2.428135 1.786803 -0.067831
v -1.397082 1.372194 -0.068288
v -1.916708 1.436666 -1.349180
v -1.916708 1.820752 -1.349180
v -1.916708 1.396279 1.392675
v -1.916708 1.760086 1.392675
v -1.916708 1.830107 0.611652
v -1.916708 1.854696 -0.724183
v -1.916708 1.817557 -0.056265
v -2.527095 1.527264 1.482432
v -2.542479 1.543360 -1.456431
v -1.290937 1.555665 -1.456431
v -1.306321 1.487256 1.482432
v -1.714201 1.549447 1.565128
v -2.119215 1.569216 1.565128
v -2.123963 1.618431 -1.536567
v -1.709453 1.621227 -1.536567
v -1.270845 1.623853 0.915622
v -2.562571 1.598560 0.915622
v -1.270845 1.622615 -1.064585
v -2.562571 1.600431 -1.064585
v -2.502820 1.602122 -0.074731
v -1.330596 1.545961 -0.074731
v -1.916708 1.636264 -1.555336
v -1.916708 1.577939 1.584065
vn 0.7173 -0.0025 -0.6968
vn 0.6565 0.3572 -0.6644
vn 0.9558 0.2939 -0.0000
vn 1.0000 -0.0006 -0.0000
vn 0.7172 0.0005 0.6969
vn 0.6511 0.3664 0.6647
vn 0.0049 0.2685 0.9633
vn 0.0006 -0.0018 1.0000
vn 0.0202 0.9998 -0.0000
vn -0.0000 1.0000 -0.0000
vn -0.0000 0.9818 0.1902
vn 0.0198 0.9816 0.1899
vn 0.0198 0.9816 -0.1899
vn -0.0000 0.9817 -0.1902
vn 1.0000 -0.0023 -0.0001
vn 0.9553 0.2956 0.0002
vn 0.0007 0.0014 1.0000
vn 0.0046 0.2697 0.9629
vn 0.0044 0.2659 0.9640
vn 0.0006 -0.0016 1.0000
vn 0.0110 0.2676 0.9635
vn 0.0013 -0.0006 1.0000
vn 0.0012 -0.0001 1.0000
vn 0.0109 0.2687 0.9632
vn 0.0055 0.2707 0.9626
vn 0.0006 0.0018 1.0000
vn 0.9558 0.2941 -0.0000
vn 0.2047 0.9666 -0.1545
vn 0.0089 0.9750 -0.2219
vn 0.0240 0.9996 -0.0173
vn 0.2558 0.9667 -0.0025
vn 0.0324 0.9992 0.0245
vn 0.0077 0.9997 0.0227
vn 0.0133 0.9709 0.2392
vn 0.0250 0.9712 0.2370
vn 0.0089 0.9999 0.0140
vn 0.0139 0.9745 0.2238
vn 0.0306 0.9995 0.0051
vn 0.0367 0.9783 0.2040
vn 0.0408 0.9992 -0.0000
vn 0.0403 0.9806 0.1917
vn 0.2368 0.9715 0.0121
vn 0.1666 0.9727 0.1614
vn 0.0278 0.9690 -0.2456
vn 0.0421 0.9770 -0.2092
vn 0.0311 0.9995 -0.0101
vn 0.0132 0.9994 -0.0331
vn -0.0158 0.9669 -0.2546
vn -0.0071 0.9992 -0.0381
vn 0.0012 -0.0001 -1.0000
vn 0.0109 0.2687 -0.9632
vn 0.0132 0.2680 -0.9633
vn 0.0016 -0.0002 -1.0000
vn 0.0093 0.2658 -0.9640
vn 0.0013 -0.0017 -1.0000
vn 0.0250 0.9997 0.0004
vn 0.0048 1.0000 0.0005
vn 0.0264 0.9997 0.0016
vn 0.0056 1.0000 0.0046
vn -0.0052 0.2649 -0.9643
vn -0.0007 -0.0027 -1.0000
vn 0.0005 1.0000 0.0036
vn 0.0038 1.0000 0.0073
vn -0.0004 0.2732 -0.9620
vn 0.0001 0.0034 -1.0000
vn 0.0325 0.9994 0.0075
vn 0.0336 0.9994 0.0100
vn 0.9553 0.2956 0.0029
vn 1.0000 0.0002 0.0006
vn -0.0000 0.0009 -1.0000
vn -0.0000 0.2587 -0.9660
vn 0.0055 0.2707 -0.9627
vn 0.0006 0.0018 -1.0000
vn 0.0402 0.9806 -0.1918
vn 0.2536 0.9673 0.0045
vn 0.2482 0.9686 0.0107
vn 0.5207 0.6920 -0.5000
vn 0.0008 0.7028 -0.7114
vn 0.5024 0.7057 0.4996
vn 0.7249 0.6888 0.0012
vn -0.0000 0.7140 0.7001
vn 0.0145 0.7161 0.6979
vn -0.0000 0.2587 0.9660
vn 0.0145 0.7160 -0.6979
vn -0.0000 0.7140 -0.7002
vn 0.0351 0.7026 -0.7107
vn 0.0296 0.7113 -0.7022
vn 0.0252 0.6838 -0.7292
vn -0.0143 0.6787 -0.7343
vn 0.0138 0.6882 0.7254
vn 0.0120 0.6920 0.7218
vn 0.0122 0.6927 0.7211
vn 0.0296 0.7040 0.7096
vn 0.0296 0.7114 0.7022
vn 0.7306 0.6828 -0.0003
vn 0.7298 0.6836 0.0004
vn 0.7267 0.6869 0.0073
vn -0.0000 0.0009 1.0000
vn -0.0014 -0.1417 0.9899
vn -0.0000 -0.1403 0.9901
vn -0.0000 -0.1403 -0.9901
vn -0.0014 -0.1417 -0.9899
vn 0.9766 -0.2152 -0.0007
vn 0.9763 -0.2165 -0.0001
vn 0.9768 -0.2142 -0.0000
vn 0.0004 -0.1569 -0.9876
vn 0.6692 -0.2576 -0.6970
vn 0.0011 -0.1597 -0.9872
vn -0.0020 -0.1582 -0.9874
vn -0.0031 -0.1507 -0.9886
vn -0.0027 -0.1449 -0.9894
vn -0.0011 -0.1614 0.9869
vn -0.0011 -0.1575 0.9875
vn -0.0027 -0.1449 0.9894
vn -0.0009 -0.1541 0.9881
vn -0.0026 -0.1497 0.9887
vn 0.6678 -0.2636 0.6961
vn -0.9986 0.0492 -0.0183
vn -0.5999 0.7996 -0.0260
vn -0.5370 0.7823 -0.3156
vn -0.6878 -0.0684 -0.7226
vn 0.1366 0.0314 -0.9901
vn 0.1353 0.9101 -0.3917
vn 0.5178 0.7926 -0.3220
vn 0.6893 -0.0612 -0.7219
vn 0.9962 0.0802 0.0329
vn 0.5713 0.8195 0.0442
vn 0.5113 0.7763 0.3686
vn 0.6865 -0.0813 0.7226
vn -0.1437 0.0086 0.9896
vn -0.1162 0.9040 0.4114
vn -0.5136 0.7946 0.3239
vn -0.6874 -0.0511 0.7245
vn -0.0650 0.9972 0.0366
vn -0.5838 0.8111 0.0368
vn 0.0998 0.9947 0.0233
vn 0.1494 0.8861 0.4388
vn 0.0230 0.9990 0.0386
vn 0.0254 0.9065 0.4215
vn 0.1346 -0.0086 0.9909
vn -0.0022 0.0389 0.9992
vn -0.1574 0.9082 -0.3878
vn -0.1351 0.0322 -0.9903
vn 0.0007 0.0534 -0.9986
vn -0.0098 0.9205 -0.3906
vn 0.0264 0.9995 0.0171
vn -0.0681 0.9976 0.0126
vn 0.6293 0.7771 0.0037
vn 0.1159 0.9932 0.0109
vn -0.5858 0.8104 0.0045
vn 0.9997 -0.0261 0.0010
vn -0.9990 0.0391 0.0223
vn 0.5897 0.8076 -0.0089
vn 0.9975 0.0673 -0.0221
vn -0.0969 0.9952 -0.0107
vn 0.1126 0.9935 0.0147
vn 0.0052 1.0000 -0.0023
vn -1.0000 0.0062 0.0013
vn -0.0080 -0.7171 0.6969
vn -0.0392 -0.7236 0.6891
vn 0.0018 -0.7093 -0.7049
vn 0.0057 -0.7170 -0.6971
vn 0.9272 -0.3738 0.0235
vn 0.9281 -0.3724 -0.0004
vn -0.9270 -0.3734 -0.0358
vn -0.9310 -0.3649 -0.0017
vn -0.9285 -0.3691 0.0421
vn 0.6605 -0.6526 -0.3713
vn -0.6680 -0.6470 0.3676
vn 0.9295 -0.3678 -0.0281
vn 0.0122 -0.7120 -0.7021
vn -0.6550 -0.6536 -0.3792
vn -0.0472 -0.7229 0.6894
vn 0.6725 -0.6463 0.3607
vt 0.902320 0.081336
vt 0.896917 0.114924
vt 0.824984 0.114923
vt 0.828224 0.081336
vt 0.499518 0.112079
vt 0.532780 0.119486
vt 0.531566 0.222086
vt 0.498316 0.217543
vt 0.611452 0.630999
vt 0.611428 0.732923
vt 0.547879 0.732692
vt 0.548661 0.631340
vt 0.889329 0.630096
vt 0.890765 0.731405
vt 0.827374 0.732025
vt 0.826587 0.630288
vt 0.605922 0.080651
vt 0.609159 0.113658
vt 0.537087 0.114936
vt 0.531760 0.081330
vt 0.498984 0.322876
vt 0.533756 0.324384
vt 0.532422 0.426696
vt 0.497535 0.428162
vt 0.534190 0.529477
vt 0.497548 0.533674
vt 0.497779 0.586254
vt 0.535099 0.580501
vt 0.535883 0.631213
vt 0.498114 0.638698
vt 0.753056 0.114923
vt 0.754133 0.081341
vt 0.888384 0.128259
vt 0.886539 0.220660
vt 0.824670 0.221107
vt 0.824984 0.128314
vt 0.609244 0.222059
vt 0.610000 0.324297
vt 0.546951 0.324491
vt 0.545089 0.222198
vt 0.609930 0.426654
vt 0.545788 0.426832
vt 0.610735 0.529069
vt 0.547272 0.529642
vt 0.611128 0.580100
vt 0.547969 0.580659
vt 0.609157 0.127067
vt 0.545655 0.127836
vt 0.891468 0.425853
vt 0.889908 0.528643
vt 0.826630 0.528405
vt 0.827057 0.425885
vt 0.891065 0.322272
vt 0.826497 0.323136
vt 0.939809 0.584673
vt 0.902492 0.579249
vt 0.902960 0.528362
vt 0.939550 0.532155
vt 0.826550 0.579391
vt 0.754931 0.630501
vt 0.754788 0.579499
vt 0.683144 0.630737
vt 0.682938 0.579729
vt 0.904962 0.425598
vt 0.939171 0.426648
vt 0.754693 0.528442
vt 0.754580 0.426071
vt 0.682715 0.528651
vt 0.682287 0.426352
vt 0.904645 0.322133
vt 0.938077 0.320878
vt 0.754114 0.323673
vt 0.681968 0.324024
vt 0.899487 0.220512
vt 0.934573 0.215994
vt 0.753225 0.221441
vt 0.681323 0.221733
vt 0.901965 0.119668
vt 0.934898 0.111551
vt 0.681184 0.114920
vt 0.680060 0.081362
vt 0.941632 0.741827
vt 0.903607 0.731219
vt 0.902092 0.629878
vt 0.939889 0.637083
vt 0.755428 0.732470
vt 0.683449 0.732780
vt 0.889645 0.579511
vt 0.753053 0.128307
vt 0.681164 0.128204
vt 0.895438 0.122329
vt 0.893011 0.220587
vt 0.539576 0.121422
vt 0.609159 0.120362
vt 0.541392 0.732641
vt 0.542214 0.631311
vt 0.535045 0.732590
vt 0.895769 0.630022
vt 0.897243 0.731312
vt 0.896434 0.528590
vt 0.896124 0.579450
vt 0.898219 0.425787
vt 0.897862 0.322172
vt 0.538322 0.222173
vt 0.539263 0.122038
vt 0.540353 0.324468
vt 0.539101 0.426795
vt 0.540731 0.529633
vt 0.541477 0.580650
vt 0.824984 0.121621
vt 0.894417 0.121593
vt 0.753055 0.121619
vt 0.681192 0.121558
vt 0.497098 0.743458
vt 0.459854 0.629920
vt 0.458749 0.731848
vt 0.979904 0.729948
vt 0.978078 0.628015
vt 0.681114 0.047958
vt 0.609170 0.047931
vt 0.753046 0.047935
vt 0.970167 0.219555
vt 0.968068 0.117745
vt 0.971220 0.321537
vt 0.972946 0.423656
vt 0.975900 0.525784
vt 0.977020 0.576899
vt 0.465280 0.221213
vt 0.464159 0.323403
vt 0.824982 0.047929
vt 0.460490 0.578810
vt 0.462950 0.425536
vt 0.461098 0.527703
vt 0.537228 0.047928
vt 0.466332 0.118990
vt 0.896918 0.047929
vt 0.402244 0.891853
vt 0.391098 0.865714
vt 0.419579 0.866588
vt 0.424664 0.898788
vt 0.565044 0.896206
vt 0.562545 0.863309
vt 0.631018 0.876538
vt 0.642291 0.909390
vt 0.255495 0.629382
vt 0.263674 0.663099
vt 0.221156 0.640274
vt 0.220987 0.612616
vt 0.087403 0.626631
vt 0.091740 0.657398
vt 0.026393 0.652836
vt 0.014465 0.622768
vt 0.279742 0.779586
vt 0.260931 0.859023
vt 0.220521 0.853736
vt 0.220602 0.785349
vt 0.281989 0.729128
vt 0.221933 0.718126
vt 0.280373 0.754316
vt 0.220707 0.751945
vt 0.155717 0.652422
vt 0.157889 0.622076
vt 0.122850 0.626931
vt 0.123699 0.657086
vt 0.495176 0.860498
vt 0.489883 0.892778
vt 0.527431 0.892195
vt 0.529007 0.859930
vt 0.330727 0.756668
vt 0.329523 0.779732
vt 0.335783 0.651267
vt 0.331819 0.733447
vt 0.326586 0.852536
vt 0.336266 0.616190
vt 0.202019 0.895305
vt 0.246340 0.886551
vt 0.450735 0.618361
vt 0.438161 0.653900
vt 0.407757 0.663099
vt 0.419066 0.628095
vt 0.425449 0.796192
vt 0.379089 0.784703
vt 0.429299 0.728639
vt 0.382012 0.734498
vt 0.428193 0.762424
vt 0.381188 0.759595
vt 0.325738 0.888383
vt 0.153792 0.593303
vt 0.122217 0.596816
vt 0.492334 0.926608
vt 0.525561 0.926414
vt 0.407430 0.591554
vt 0.335504 0.582250
vt 0.254706 0.920540
vt 0.324208 0.924138
vt 0.393588 0.924126
vt 0.437597 0.583529
vt 0.212893 0.927701
vt 0.263230 0.592796
vt 0.558574 0.930110
vt 0.422318 0.928256
vt 0.090562 0.596032
vt 0.218729 0.586888
vt 0.024947 0.593735
vt 0.627714 0.940093
s 1
usemtl Bed_Red
f 105/1/1 53/2/2 86/3/3 106/4/4
f 102/5/5 50/6/6 71/7/7 103/8/8
f 42/9/9 15/10/10 44/11/11 83/12/12
f 55/13/13 46/14/14 18/15/10 39/16/9
f 101/17/15 94/18/16 50/19/6 102/20/5
f 110/21/17 74/22/18 77/23/19 111/24/20
f 111/24/20 77/23/19 80/25/21 112/26/22
f 128/27/23 126/28/24 82/29/25 97/30/26
f 106/4/4 86/3/3 89/31/27 113/32/4
f 52/33/28 68/34/29 23/35/30 85/36/31
f 26/37/32 30/38/33 73/39/34 70/40/35
f 30/38/33 34/41/36 76/42/37 73/39/34
f 34/41/36 38/43/38 79/44/39 76/42/37
f 120/45/40 42/9/9 83/12/12 124/46/41
f 95/47/42 26/37/32 70/40/35 49/48/43
f 61/49/44 58/50/45 35/51/46 31/52/47
f 64/53/48 61/49/44 31/52/47 27/54/49
f 68/34/29 64/53/48 27/54/49 23/35/30
f 103/8/8 71/7/7 74/22/18 110/21/17
f 127/55/50 123/56/51 59/57/52 107/58/53
f 117/59/40 39/16/9 40/60/9 118/61/40
f 118/61/40 40/60/9 41/62/9 119/63/40
f 119/63/40 41/62/9 42/9/9 120/45/40
f 107/58/53 59/57/52 62/64/54 108/65/55
f 31/52/47 35/51/46 36/66/56 32/67/57
f 32/67/57 36/66/56 37/68/58 33/69/59
f 33/69/59 37/68/58 38/43/38 34/41/36
f 108/65/55 62/64/54 65/70/60 109/71/61
f 27/54/49 31/52/47 32/67/57 28/72/62
f 28/72/62 32/67/57 33/69/59 29/73/63
f 29/73/63 33/69/59 34/41/36 30/38/33
f 109/71/61 65/70/60 67/74/64 104/75/65
f 23/35/30 27/54/49 28/72/62 24/76/66
f 24/76/66 28/72/62 29/73/63 25/77/67
f 25/77/67 29/73/63 30/38/33 26/37/32
f 104/75/65 67/74/64 53/78/2 105/79/1
f 113/32/4 89/31/27 92/80/68 114/81/69
f 114/81/69 92/80/68 94/18/16 101/17/15
f 99/82/70 47/83/71 56/84/72 100/85/73
f 39/16/9 18/15/10 17/86/10 40/60/9
f 40/60/9 17/86/10 16/87/10 41/62/9
f 41/62/9 16/87/10 15/10/10 42/9/9
f 121/88/74 55/13/13 39/16/9 117/59/40
f 85/36/31 23/35/30 24/76/66 88/89/75
f 88/89/75 24/76/66 25/77/67 91/90/76
f 91/90/76 25/77/67 26/37/32 95/47/42
f 68/34/29 52/33/28 54/91/77 69/92/78
f 69/92/78 54/91/77 53/78/2 67/74/64
f 95/47/42 49/48/43 51/93/79 96/94/80
f 96/94/80 51/93/79 50/19/6 94/18/16
f 83/12/12 44/11/11 45/95/81 84/96/82
f 84/96/82 45/95/81 43/97/83 82/29/25
f 46/14/14 55/13/13 57/98/84 48/99/85
f 48/99/85 57/98/84 56/84/72 47/83/71
f 121/88/74 58/50/45 60/100/86 122/101/87
f 122/101/87 60/100/86 59/57/52 123/56/51
f 58/50/45 61/49/44 63/102/88 60/100/86
f 60/100/86 63/102/88 62/64/54 59/57/52
f 61/49/44 64/53/48 66/103/89 63/102/88
f 63/102/88 66/103/89 65/70/60 62/64/54
f 64/53/48 68/34/29 69/92/78 66/103/89
f 66/103/89 69/92/78 67/74/64 65/70/60
f 49/48/43 70/40/35 72/104/90 51/105/79
f 51/105/79 72/104/90 71/7/7 50/6/6
f 70/40/35 73/39/34 75/106/91 72/104/90
f 72/104/90 75/106/91 74/22/18 71/7/7
f 73/39/34 76/42/37 78/107/92 75/106/91
f 75/106/91 78/107/92 77/23/19 74/22/18
f 76/42/37 79/44/39 81/108/93 78/107/92
f 78/107/92 81/108/93 80/25/21 77/23/19
f 124/46/41 83/12/12 84/96/82 125/109/94
f 125/109/94 84/96/82 82/29/25 126/28/24
f 52/33/28 85/36/31 87/110/95 54/111/77
f 54/111/77 87/110/95 86/3/3 53/2/2
f 85/36/31 88/89/75 90/112/96 87/110/95
f 87/110/95 90/112/96 89/31/27 86/3/3
f 88/89/75 91/90/76 93/113/97 90/112/96
f 90/112/96 93/113/97 92/80/68 89/31/27
f 91/90/76 95/47/42 96/94/80 93/113/97
f 93/113/97 96/94/80 94/18/16 92/80/68
f 97/30/26 82/29/25 43/97/83 98/114/98
f 10/115/99 97/30/26 98/114/98 1/116/100
f 2/117/101 99/82/70 100/85/73 9/118/102
f 20/119/103 114/81/69 101/17/15 19/120/104
f 21/121/105 113/32/4 114/81/69 20/119/103
f 5/122/106 104/75/65 105/79/1 4/123/107
f 6/124/108 109/71/61 104/75/65 5/122/106
f 7/125/109 108/65/55 109/71/61 6/124/108
f 8/126/110 107/58/53 108/65/55 7/125/109
f 115/127/111 127/55/50 107/58/53 8/126/110
f 14/128/112 103/8/8 110/21/17 13/129/113
f 22/130/105 106/4/4 113/32/4 21/121/105
f 116/131/114 128/27/23 97/30/26 10/115/99
f 12/132/115 111/24/20 112/26/22 11/133/116
f 13/129/113 110/21/17 111/24/20 12/132/115
f 19/120/104 101/17/15 102/20/5 3/134/117
f 3/135/117 102/5/5 103/8/8 14/128/112
f 4/136/107 105/1/1 106/4/4 22/130/105
f 11/133/116 112/26/22 128/27/23 116/131/114
f 9/118/102 100/85/73 127/55/50 115/127/111
f 81/108/93 125/109/94 126/28/24 80/25/21
f 79/44/39 124/46/41 125/109/94 81/108/93
f 57/98/84 122/101/87 123/56/51 56/84/72
f 55/13/13 121/88/74 122/101/87 57/98/84
f 58/50/45 121/88/74 117/59/40 35/51/46
f 37/68/58 119/63/40 120/45/40 38/43/38
f 36/66/56 118/61/40 119/63/40 37/68/58
f 35/51/46 117/59/40 118/61/40 36/66/56
f 100/85/73 56/84/72 123/56/51 127/55/50
f 38/43/38 120/45/40 124/46/41 79/44/39
f 112/26/22 80/25/21 126/28/24 128/27/23
f 181/137/118 151/138/119 132/139/120 171/140/121
f 177/141/122 140/142/123 136/143/124 172/144/125
f 178/145/126 148/146/127 134/147/128 173/148/129
f 175/149/130 144/150/131 130/151/132 170/152/133
f 150/153/134 146/154/135 130/155/132 144/156/131
f 148/146/127 149/157/136 143/158/137 134/147/128
f 167/159/138 150/153/134 144/156/131 166/160/139
f 173/148/129 134/147/128 143/161/137 174/162/140
f 185/163/141 166/164/139 144/150/131 175/149/130
f 171/140/121 132/139/120 139/165/142 176/166/143
f 184/167/144 164/168/145 140/142/123 177/141/122
f 169/169/146 160/170/147 150/153/134 167/159/138
f 158/171/148 159/172/149 149/157/136 148/146/127
f 160/170/147 161/173/150 146/154/135 150/153/134
f 183/174/151 158/171/148 148/146/127 178/145/126
f 170/175/133 130/155/132 146/154/135 179/176/152
f 172/177/125 136/178/124 154/179/153 180/180/154
f 139/181/142 132/139/120 151/138/119 156/182/155
f 136/178/124 140/183/123 155/184/156 154/179/153
f 164/185/145 139/181/142 156/182/155 168/186/157
f 182/187/158 161/173/150 151/138/119 181/137/118
f 179/176/152 146/154/135 161/173/150 182/187/158
f 180/180/154 154/179/153 158/171/148 183/174/151
f 156/182/155 151/138/119 161/173/150 160/170/147
f 154/179/153 155/184/156 159/172/149 158/171/148
f 168/186/157 156/182/155 160/170/147 169/169/146
f 155/184/156 168/186/157 169/169/146 159/172/149
f 140/183/123 164/185/145 168/186/157 155/184/156
f 159/172/149 169/169/146 167/159/138 149/157/136
f 176/166/143 139/165/142 164/168/145 184/167/144
f 174/162/140 143/161/137 166/164/139 185/163/141
f 149/157/136 167/159/138 166/160/139 143/158/137
f 142/188/159 174/162/140 185/163/141 165/189/160
f 138/190/161 176/166/143 184/167/144 163/191/162
f 152/192/163 180/180/154 183/174/151 162/193/164
f 145/194/165 179/176/152 182/187/158 157/195/166
f 157/195/166 182/187/158 181/137/118 153/196/167
f 135/197/168 172/177/125 180/180/154 152/192/163
f 129/198/169 170/175/133 179/176/152 145/194/165
f 162/193/164 183/174/151 178/145/126 147/199/170
f 163/191/162 184/167/144 177/141/122 137/200/171
f 131/201/172 171/140/121 176/166/143 138/190/161
f 165/189/160 185/163/141 175/149/130 141/202/173
f 133/203/174 173/148/129 174/162/140 142/188/159
f 141/202/173 175/149/130 170/152/133 129/204/169
f 147/199/170 178/145/126 173/148/129 133/203/174
f 137/200/171 177/141/122 172/144/125 135/205/168
f 153/196/167 181/137/118 171/140/121 131/201/172
