# Blender 4.4.3
# www.blender.org
mtllib Estrutura.mtl
o Bedwood
v 3.027148 -0.000000 -1.675883
v 3.027148 -0.000000 -2.163279
v 3.514543 -0.000000 -1.675883
v 3.514543 -0.000000 -2.163279
v 3.027148 1.960533 -1.730374
v 3.027148 1.175601 -1.699214
v 3.514543 1.174005 -2.186572
v 3.514543 1.938309 -2.217262
v 3.027148 1.938309 -2.217262
v 3.027148 1.174005 -2.186572
v 3.514543 1.960533 -1.730374
v 3.514543 1.175601 -1.699214
v 3.437590 2.013314 -1.809817
v 3.104101 2.013314 -1.809817
v 3.104101 1.998108 -2.142958
v 3.437590 1.998108 -2.142958
v 3.514543 0.000000 1.669666
v 3.514543 0.000000 2.157061
v 3.027148 0.000000 1.669666
v 3.027148 0.000000 2.157061
v 3.514543 1.960533 1.724156
v 3.514543 1.175601 1.692996
v 3.027148 1.174005 2.180354
v 3.027148 1.938309 2.211045
v 3.514543 1.938309 2.211045
v 3.514543 1.174005 2.180354
v 3.027148 1.960533 1.724156
v 3.027148 1.175601 1.692996
v 3.104101 2.013314 1.803599
v 3.437590 2.013314 1.803599
v 3.437590 1.998108 2.136740
v 3.104101 1.998108 2.136740
v -2.972852 3.104043 -1.921834
v -2.972852 -0.000000 -1.756302
v -2.972852 3.055059 -2.406762
v -2.972852 -0.000000 -2.243698
v -2.485457 3.104043 -1.921834
v -2.485457 -0.000000 -1.756302
v -2.485457 3.055059 -2.406762
v -2.485457 -0.000000 -2.243698
v -2.972852 2.739404 -1.875076
v -2.972852 1.960533 -1.810793
v -2.972852 1.175601 -1.779633
v -2.485457 1.174005 -2.266991
v -2.485457 1.938309 -2.297681
v -2.485457 2.694200 -2.360331
v -2.972852 2.694200 -2.360331
v -2.972852 1.938309 -2.297681
v -2.972852 1.174005 -2.266991
v -2.485457 2.739404 -1.875076
v -2.485457 1.960533 -1.810793
v -2.485457 1.175601 -1.779633
v -2.897462 3.089059 -2.334422
v -2.560847 3.089059 -2.334422
v -2.897462 3.122889 -1.999511
v -2.560847 3.122889 -1.999511
v -2.485457 3.104043 1.921833
v -2.485457 0.000000 1.756302
v -2.485456 3.055060 2.406761
v -2.485456 0.000000 2.243698
v -2.972852 3.104043 1.921833
v -2.972852 0.000000 1.756302
v -2.972852 3.055060 2.406761
v -2.972852 0.000000 2.243698
v -2.485457 2.739404 1.875076
v -2.485457 1.960533 1.810793
v -2.485457 1.175601 1.779633
v -2.972852 1.174005 2.266991
v -2.972852 1.938309 2.297681
v -2.972852 2.694201 2.360331
v -2.485456 2.694201 2.360331
v -2.485456 1.938309 2.297681
v -2.485456 1.174005 2.266991
v -2.972852 2.739404 1.875076
v -2.972852 1.960533 1.810793
v -2.972852 1.175601 1.779633
v -2.560847 3.089059 2.334422
v -2.897462 3.089059 2.334422
v -2.560847 3.122889 1.999511
v -2.897462 3.122889 1.999511
v -2.829155 0.600000 1.792005
v -2.829155 0.600000 -1.791717
v -2.629154 0.600000 1.792005
v -2.629154 0.600000 -1.791717
v -2.829154 0.600000 -1.128756
v -2.829154 0.600000 -0.373325
v -2.829154 0.600000 0.382106
v -2.829155 0.600000 1.137537
v -2.629155 0.600000 1.137537
v -2.629155 0.600000 0.382106
v -2.629155 0.600000 -0.373325
v -2.629154 0.600000 -1.128756
v -2.795932 2.604007 1.892968
v -2.829155 2.569807 1.892968
v -2.829155 2.569807 -1.884187
v -2.795932 2.604006 -1.884187
v -2.629154 2.569807 1.892968
v -2.662377 2.604007 1.892968
v -2.662377 2.604006 -1.884187
v -2.629154 2.569807 -1.884187
v -2.795932 2.854958 1.137537
v -2.829155 2.820787 1.137537
v -2.795932 3.016811 0.382106
v -2.829154 2.982685 0.382106
v -2.795932 3.016811 -0.373325
v -2.829154 2.982685 -0.373325
v -2.829154 2.820786 -1.128756
v -2.795932 2.854958 -1.128756
v -2.662377 2.854958 -1.128756
v -2.629154 2.820786 -1.128756
v -2.662377 3.016811 -0.373325
v -2.629155 2.982685 -0.373325
v -2.662377 3.016811 0.382106
v -2.629155 2.982685 0.382106
v -2.629155 2.820786 1.137537
v -2.662377 2.854958 1.137537
v 3.045140 0.325932 -1.892545
v 3.045140 0.678433 -1.892546
v 3.045140 0.678433 -1.744666
v -2.514542 0.325932 -1.892545
v -2.514542 0.678433 -1.892545
v -2.514542 0.678433 -1.744665
v -2.514543 0.325933 1.900140
v -2.514543 0.678433 1.900140
v -2.514543 0.678433 1.752260
v 3.045140 0.325933 1.900140
v 3.045140 0.678433 1.900140
v 3.045140 0.678433 1.752260
v 3.393183 0.325933 1.711266
v 3.393183 0.678433 1.711265
v 3.245303 0.678433 1.711266
v 3.393182 0.325932 -1.723725
v 3.393182 0.678433 -1.723725
v 3.245302 0.678433 -1.723725
vn -0.0000 0.0198 0.9998
vn -0.0000 0.0397 0.9992
vn -1.0000 -0.0000 -0.0000
vn 1.0000 -0.0000 -0.0000
vn -0.0000 -0.0198 -0.9998
vn -0.0000 -0.0401 -0.9992
vn -0.5908 0.8060 -0.0368
vn -0.0000 0.9990 -0.0456
vn -0.0000 0.8329 0.5534
vn -0.0000 0.7790 -0.6270
vn 0.5908 0.8060 -0.0368
vn -0.0000 0.0198 -0.9998
vn -0.0000 0.0397 -0.9992
vn -0.0000 -0.0198 0.9998
vn -0.0000 -0.0401 0.9992
vn 0.5908 0.8060 0.0368
vn -0.0000 0.9990 0.0456
vn -0.0000 0.8329 -0.5534
vn -0.0000 0.7790 0.6270
vn -0.5908 0.8060 0.0368
vn -0.0000 0.9718 0.2358
vn -0.0000 -0.1276 -0.9918
vn -0.0000 0.1272 0.9919
vn -0.0000 0.0823 0.9966
vn -0.0000 -0.0826 -0.9966
vn -0.0000 0.9949 -0.1005
vn -0.0000 0.9050 -0.4254
vn 0.3323 0.9384 -0.0948
vn -0.3323 0.9384 -0.0948
vn -0.0000 0.9718 -0.2358
vn -0.0000 -0.1276 0.9918
vn -0.0000 0.1272 -0.9919
vn -0.0000 0.0823 -0.9966
vn -0.0000 -0.0826 0.9966
vn -0.0000 0.9949 0.1005
vn -0.0000 0.9050 0.4254
vn -0.3323 0.9384 0.0948
vn 0.3323 0.9384 0.0948
vn 0.9182 0.3816 0.1067
vn 0.9451 0.3101 0.1030
vn -0.9182 0.3816 -0.1067
vn -0.9453 0.3097 -0.1029
vn 0.9453 0.3097 -0.1029
vn 0.9182 0.3816 -0.1067
vn 0.9169 0.3967 -0.0442
vn 0.4026 0.8687 -0.2886
vn -0.4026 0.8687 -0.2886
vn -0.3767 0.8944 -0.2411
vn 0.3767 0.8944 -0.2411
vn -0.9169 0.3967 -0.0442
vn -0.9169 0.3967 0.0442
vn -0.9182 0.3816 0.1067
vn 0.9169 0.3967 0.0442
vn 0.3767 0.8944 0.2411
vn -0.3767 0.8944 0.2411
vn -0.4026 0.8687 0.2886
vn 0.4026 0.8687 0.2886
vn 0.3788 0.9205 0.0957
vn -0.3788 0.9205 0.0957
vn 0.3788 0.9205 -0.0957
vn -0.3788 0.9205 -0.0957
vn -0.9451 0.3101 0.1030
vn -0.0000 -0.0000 -1.0000
vn -0.0000 1.0000 -0.0000
vn -0.0000 -0.0000 1.0000
vt 0.545882 0.027607
vt 0.545967 0.200175
vt 0.474533 0.200152
vt 0.474350 0.027642
vt 0.545682 0.315392
vt 0.474100 0.315166
vt 0.402922 0.202053
vt 0.402637 0.029164
vt 0.402788 0.314520
vt 0.331204 0.029178
vt 0.330988 0.202009
vt 0.259283 0.200276
vt 0.259648 0.027607
vt 0.331406 0.314612
vt 0.260061 0.315404
vt 0.462538 0.329565
vt 0.414878 0.328442
vt 0.461792 0.377257
vt 0.414132 0.376134
vt 0.476241 0.391201
vt 0.400211 0.390511
vt 0.758486 0.466580
vt 0.758374 0.536825
vt 0.746936 0.525509
vt 0.747165 0.478033
vt 0.690106 0.415211
vt 0.688244 0.466580
vt 0.620901 0.466399
vt 0.620398 0.414740
vt 0.552680 0.465945
vt 0.551408 0.414572
vt 0.758717 0.415273
vt 0.827091 0.416357
vt 0.826006 0.468144
vt 0.830836 0.029076
vt 0.829615 0.195642
vt 0.760760 0.195181
vt 0.761793 0.028569
vt 0.828626 0.306498
vt 0.760072 0.305898
vt 0.691321 0.196683
vt 0.692517 0.029491
vt 0.690739 0.306462
vt 0.623570 0.028894
vt 0.621771 0.196019
vt 0.552441 0.193374
vt 0.554500 0.026670
vt 0.620713 0.305801
vt 0.551255 0.304478
vt 0.699453 0.525372
vt 0.699683 0.477896
vt 0.688132 0.536825
vt 0.426787 0.566776
vt 0.426787 0.846509
vt 0.328851 0.814895
vt 0.328851 0.566776
vt 0.426787 0.566776
vt 0.426787 0.846509
vt 0.328851 0.566776
vt 0.818530 0.566776
vt 0.818530 0.814895
vt 0.720594 0.846509
vt 0.720594 0.566776
vt 0.622658 0.866902
vt 0.622658 0.566776
vt 0.824067 0.873869
vt 0.824068 0.891097
vt 0.720303 0.890940
vt 0.720343 0.873975
vt 0.524722 0.566776
vt 0.524722 0.866902
vt 0.622658 0.866902
vt 0.720594 0.566776
vt 0.524722 0.866902
vt 0.426897 0.874028
vt 0.426858 0.890993
vt 0.323134 0.891100
vt 0.323132 0.873871
vt 0.525785 0.874084
vt 0.525725 0.890832
vt 0.621476 0.874136
vt 0.621416 0.890884
vt 0.825395 0.897020
vt 0.721395 0.896843
vt 0.321805 0.867949
vt 0.425805 0.868125
vt 0.425765 0.896894
vt 0.321804 0.897019
vt 0.525289 0.896830
vt 0.621847 0.896804
vt 0.721435 0.868075
vt 0.825396 0.867949
vt 0.621911 0.868138
vt 0.525353 0.868164
vt 0.818530 0.566776
vt 0.818529 0.814896
vt 0.240161 0.356638
vt 0.279706 0.356638
vt 0.279706 0.980332
vt 0.240161 0.980332
vt 0.296295 0.356638
vt 0.296295 0.980332
vt 0.240162 0.356638
vt 0.279706 0.356638
vt 0.279706 0.980332
vt 0.240161 0.980332
vt 0.296295 0.980332
vt 0.240156 0.475812
vt 0.279701 0.475812
vt 0.279701 0.861157
vt 0.240156 0.861157
vt 0.296290 0.475812
vt 0.296290 0.861157
s 1
usemtl Bedwood
f 3/1/1 12/2/1 6/3/1 1/4/1
f 12/2/2 11/5/2 5/6/2 6/3/2
f 1/4/3 6/3/3 10/7/3 2/8/3
f 6/3/3 5/6/3 9/9/3 10/7/3
f 4/10/4 7/11/4 12/12/4 3/13/4
f 7/11/4 8/14/4 11/15/4 12/12/4
f 2/8/5 10/7/5 7/11/5 4/10/5
f 10/7/6 9/9/6 8/14/6 7/11/6
f 9/9/7 5/6/7 14/16/7 15/17/7
f 13/18/8 16/19/8 15/17/8 14/16/8
f 5/6/9 11/20/9 13/18/9 14/16/9
f 8/21/10 9/9/10 15/17/10 16/19/10
f 11/20/11 8/21/11 16/19/11 13/18/11
f 19/1/12 28/2/12 22/3/12 17/4/12
f 28/2/13 27/5/13 21/6/13 22/3/13
f 17/4/4 22/3/4 26/7/4 18/8/4
f 22/3/4 21/6/4 25/9/4 26/7/4
f 20/10/3 23/11/3 28/12/3 19/13/3
f 23/11/3 24/14/3 27/15/3 28/12/3
f 18/8/14 26/7/14 23/11/14 20/10/14
f 26/7/15 25/9/15 24/14/15 23/11/15
f 25/9/16 21/6/16 30/16/16 31/17/16
f 29/18/17 32/19/17 31/17/17 30/16/17
f 21/6/18 27/20/18 29/18/18 30/16/18
f 24/21/19 25/9/19 31/17/19 32/19/19
f 27/20/20 24/21/20 32/19/20 29/18/20
f 33/22/21 37/23/21 56/24/21 55/25/21
f 47/26/22 35/27/22 39/28/22 46/29/22
f 46/29/4 39/28/4 37/30/4 50/31/4
f 41/32/3 33/22/3 35/27/3 47/26/3
f 50/33/23 37/34/23 33/22/23 41/32/23
f 38/35/1 52/36/1 43/37/1 34/38/1
f 52/36/2 51/39/2 42/40/2 43/37/2
f 51/39/24 50/33/24 41/32/24 42/40/24
f 34/38/3 43/37/3 49/41/3 36/42/3
f 43/37/3 42/40/3 48/43/3 49/41/3
f 42/40/3 41/32/3 47/26/3 48/43/3
f 40/44/4 44/45/4 52/46/4 38/47/4
f 44/45/4 45/48/4 51/49/4 52/46/4
f 45/48/4 46/29/4 50/31/4 51/49/4
f 36/42/5 49/41/5 44/45/5 40/44/5
f 49/41/6 48/43/6 45/48/6 44/45/6
f 48/43/25 47/26/25 46/29/25 45/48/25
f 55/25/26 56/24/26 54/50/26 53/51/26
f 39/52/27 35/27/27 53/51/27 54/50/27
f 37/23/28 39/52/28 54/50/28 56/24/28
f 35/27/29 33/22/29 55/25/29 53/51/29
f 57/22/30 61/23/30 80/24/30 79/25/30
f 71/26/31 59/27/31 63/28/31 70/29/31
f 70/29/3 63/28/3 61/30/3 74/31/3
f 65/32/4 57/22/4 59/27/4 71/26/4
f 74/33/32 61/34/32 57/22/32 65/32/32
f 62/35/12 76/36/12 67/37/12 58/38/12
f 76/36/13 75/39/13 66/40/13 67/37/13
f 75/39/33 74/33/33 65/32/33 66/40/33
f 58/38/4 67/37/4 73/41/4 60/42/4
f 67/37/4 66/40/4 72/43/4 73/41/4
f 66/40/4 65/32/4 71/26/4 72/43/4
f 64/44/3 68/45/3 76/46/3 62/47/3
f 68/45/3 69/48/3 75/49/3 76/46/3
f 69/48/3 70/29/3 74/31/3 75/49/3
f 60/42/14 73/41/14 68/45/14 64/44/14
f 73/41/15 72/43/15 69/48/15 68/45/15
f 72/43/34 71/26/34 70/29/34 69/48/34
f 79/25/35 80/24/35 78/50/35 77/51/35
f 63/52/36 59/27/36 77/51/36 78/50/36
f 61/23/37 63/52/37 78/50/37 80/24/37
f 59/27/38 57/22/38 79/25/38 77/51/38
f 89/53/4 115/54/39 97/55/40 83/56/4
f 85/57/3 107/58/41 95/55/42 82/59/3
f 84/60/4 100/61/43 110/62/44 92/63/4
f 92/63/4 110/62/44 112/64/45 91/65/4
f 99/66/46 96/67/47 108/68/48 109/69/49
f 86/70/3 106/71/50 107/58/41 85/57/3
f 87/65/3 104/72/51 106/71/50 86/70/3
f 88/73/3 102/62/52 104/72/51 87/65/3
f 91/65/4 112/64/45 114/74/53 90/70/4
f 90/70/4 114/74/53 115/54/39 89/53/4
f 116/75/54 101/76/55 93/77/56 98/78/57
f 113/79/58 103/80/59 101/76/55 116/75/54
f 111/81/60 105/82/61 103/80/59 113/79/58
f 109/69/49 108/68/48 105/82/61 111/81/60
f 108/68/48 96/67/47 95/83/42 107/84/41
f 116/75/54 98/78/57 97/85/40 115/86/39
f 93/77/56 101/76/55 102/87/52 94/88/62
f 101/76/55 103/80/59 104/89/51 102/87/52
f 103/80/59 105/82/61 106/90/50 104/89/51
f 105/82/61 108/68/48 107/84/41 106/90/50
f 99/66/46 109/69/49 110/91/44 100/92/43
f 109/69/49 111/81/60 112/93/45 110/91/44
f 111/81/60 113/79/58 114/94/53 112/93/45
f 113/79/58 116/75/54 115/86/39 114/94/53
f 81/95/3 94/96/62 102/62/52 88/73/3
f 120/97/63 121/98/63 118/99/63 117/100/63
f 122/101/64 119/102/64 118/99/64 121/98/64
f 126/103/65 127/104/65 124/105/65 123/106/65
f 128/101/64 125/107/64 124/105/64 127/104/64
f 132/108/4 133/109/4 130/110/4 129/111/4
f 134/112/64 131/113/64 130/110/64 133/109/64
