# Blender 3.6.3
# www.blender.org
mtllib left_hand.mtl
o Object_2.002
v 0.409225 0.578422 -0.095679
v 0.547637 0.593834 -0.001456
v 0.521058 0.557603 -0.134174
v 0.393639 0.624176 -0.000410
v 0.325365 0.525203 -0.139774
v 0.283899 0.555907 -0.001456
v 0.254542 0.434574 -0.001456
v 0.325365 0.525203 0.136863
v 0.303822 0.427388 0.093055
v 0.357133 0.334158 0.131263
v 0.334847 0.303778 -0.001456
v 0.357133 0.334158 -0.134174
v 0.462844 0.270057 -0.126817
v 0.441242 0.448805 -0.190747
v 0.545007 0.374422 -0.180045
v 0.616261 0.478945 -0.127203
v 0.674744 0.409680 -0.103344
v 0.652328 0.507907 -0.001456
v 0.706337 0.437865 -0.001456
v 0.678356 0.414887 0.102742
v 0.695446 0.344407 0.065836
v 0.614696 0.325931 0.144694
v 0.666169 0.290099 0.072482
v 0.622810 0.245569 0.065836
v 0.679374 0.281061 -0.001456
v 0.625506 0.227467 -0.001456
v 0.622810 0.245569 -0.068747
v 0.535633 0.205524 -0.001456
v 0.549265 0.241227 -0.103544
v 0.448524 0.230417 -0.001456
v 0.549363 0.239820 0.099907
v 0.545007 0.374422 0.177134
v 0.618274 0.481685 0.123616
v 0.303575 0.430615 -0.097740
v 0.614696 0.325930 -0.147605
v 0.695446 0.344407 -0.068747
v 0.714063 0.347969 -0.001456
v 0.413633 0.579994 0.096455
v 0.521058 0.557603 0.131263
v 0.666169 0.290099 -0.075392
v 0.441242 0.448805 0.187836
v 0.463108 0.270417 0.122228
vn -0.0293 0.8593 -0.5106
vn 0.4422 0.8950 -0.0582
vn 0.2577 0.7096 -0.6558
vn -0.2445 0.9696 -0.0146
vn -0.6308 0.4571 -0.6270
vn -0.8062 0.5917 -0.0000
vn -0.9963 -0.0856 0.0010
vn -0.6349 0.4489 0.6289
vn -0.8017 -0.2023 0.5624
vn -0.5687 -0.4880 0.6622
vn -0.6880 -0.7230 -0.0629
vn -0.5689 -0.4906 -0.6600
vn -0.2668 -0.6954 -0.6673
vn -0.0644 0.0562 -0.9963
vn 0.2220 -0.1539 -0.9628
vn 0.5567 0.4797 -0.6782
vn 0.7422 0.2349 -0.6277
vn 0.7496 0.6616 -0.0170
vn 0.9611 0.2757 -0.0189
vn 0.7498 0.2325 0.6195
vn 0.8897 -0.2122 0.4044
vn 0.4972 -0.3752 0.7823
vn 0.7211 -0.5291 0.4472
vn 0.4693 -0.7857 0.4032
vn 0.8106 -0.5856 -0.0002
vn 0.4907 -0.8714 -0.0000
vn 0.4668 -0.7859 -0.4055
vn 0.0622 -0.9981 -0.0037
vn 0.0369 -0.7910 -0.6106
vn -0.3498 -0.9368 -0.0107
vn 0.0328 -0.7920 0.6096
vn 0.2079 -0.1577 0.9654
vn 0.5449 0.4965 0.6757
vn -0.8028 -0.1961 -0.5631
vn 0.5011 -0.3638 -0.7852
vn 0.8877 -0.1983 -0.4154
vn 0.9804 -0.1970 -0.0000
vn -0.0842 0.8209 0.5648
vn 0.2695 0.6928 0.6689
vn 0.7211 -0.5291 -0.4472
vn -0.0653 0.0495 0.9966
vn -0.2168 -0.6462 0.7318
vt 0.149729 0.101388
vt 0.130444 0.083627
vt 0.157607 0.092214
vt 0.130230 0.096000
vt 0.158754 0.118975
vt 0.130444 0.118801
vt 0.130444 0.140935
vt 0.102134 0.118975
vt 0.111100 0.136583
vt 0.103281 0.145169
vt 0.130444 0.152369
vt 0.157607 0.145169
vt 0.156102 0.143408
vt 0.169186 0.117998
vt 0.166996 0.118053
vt 0.156181 0.093884
vt 0.152051 0.098168
vt 0.130444 0.085375
vt 0.130444 0.090277
vt 0.108347 0.096957
vt 0.116671 0.106025
vt 0.099451 0.117862
vt 0.115311 0.117723
vt 0.116671 0.129463
vt 0.130444 0.117663
vt 0.130444 0.131980
vt 0.144217 0.129463
vt 0.130444 0.145369
vt 0.152093 0.138301
vt 0.130444 0.151165
vt 0.108949 0.138509
vt 0.093892 0.118053
vt 0.104846 0.093234
vt 0.150150 0.136108
vt 0.161437 0.117862
vt 0.144217 0.106025
vt 0.130444 0.103404
vt 0.110405 0.100654
vt 0.103281 0.092214
vt 0.145577 0.117723
vt 0.091702 0.117998
vt 0.105130 0.143323
s 1
usemtl mat2
f 1/1/1 2/2/2 3/3/3
f 1/1/1 4/4/4 2/2/2
f 5/5/5 4/4/4 1/1/1
f 5/5/5 6/6/6 4/4/4
f 7/7/7 6/6/6 5/5/5
f 7/7/7 8/8/8 6/6/6
f 9/9/9 8/8/8 7/7/7
f 9/9/9 10/10/10 8/8/8
f 7/7/7 10/10/10 9/9/9
f 7/7/7 11/11/11 10/10/10
f 12/12/12 11/11/11 7/7/7
f 12/12/12 13/13/13 11/11/11
f 14/14/14 13/13/13 12/12/12
f 14/14/14 15/15/15 13/13/13
f 16/16/16 15/15/15 14/14/14
f 16/16/16 17/17/17 15/15/15
f 18/18/18 17/17/17 16/16/16
f 18/18/18 19/19/19 17/17/17
f 20/20/20 19/19/19 18/18/18
f 20/20/20 21/21/21 19/19/19
f 22/22/22 21/21/21 20/20/20
f 22/22/22 23/23/23 21/21/21
f 24/24/24 23/23/23 22/22/22
f 24/24/24 25/25/25 23/23/23
f 26/26/26 25/25/25 24/24/24
f 26/26/26 27/27/27 25/25/25
f 28/28/28 27/27/27 26/26/26
f 28/28/28 29/29/29 27/27/27
f 30/30/30 29/29/29 28/28/28
f 30/30/30 13/13/13 29/29/29
f 11/11/11 13/13/13 30/30/30
f 24/24/24 28/28/28 26/26/26
f 24/24/24 31/31/31 28/28/28
f 22/22/22 31/31/31 24/24/24
f 22/22/22 32/32/32 31/31/31
f 20/20/20 32/32/32 22/22/22
f 20/20/20 33/33/33 32/32/32
f 18/18/18 33/33/33 20/20/20
f 18/18/18 2/2/2 33/33/33
f 16/16/16 2/2/2 18/18/18
f 16/16/16 3/3/3 2/2/2
f 14/14/14 3/3/3 16/16/16
f 14/14/14 5/5/5 3/3/3
f 12/12/12 5/5/5 14/14/14
f 12/12/12 34/34/34 5/5/5
f 7/7/7 34/34/34 12/12/12
f 7/7/7 5/5/5 34/34/34
f 15/15/15 29/29/29 13/13/13
f 15/15/15 35/35/35 29/29/29
f 17/17/17 35/35/35 15/15/15
f 17/17/17 36/36/36 35/35/35
f 19/19/19 36/36/36 17/17/17
f 19/19/19 37/37/37 36/36/36
f 21/21/21 37/37/37 19/19/19
f 21/21/21 25/25/25 37/37/37
f 23/23/23 25/25/25 21/21/21
f 8/8/8 4/4/4 6/6/6
f 8/8/8 38/38/38 4/4/4
f 39/39/39 38/38/38 8/8/8
f 39/39/39 4/4/4 38/38/38
f 2/2/2 4/4/4 39/39/39
f 35/35/35 27/27/27 29/29/29
f 35/35/35 40/40/40 27/27/27
f 36/36/36 40/40/40 35/35/35
f 36/36/36 25/25/25 40/40/40
f 37/37/37 25/25/25 36/36/36
f 41/41/41 32/32/32 33/33/33
f 41/41/41 42/42/42 32/32/32
f 10/10/10 42/42/42 41/41/41
f 10/10/10 11/11/11 42/42/42
f 39/39/39 33/33/33 2/2/2
f 39/39/39 41/41/41 33/33/33
f 8/8/8 41/41/41 39/39/39
f 8/8/8 10/10/10 41/41/41
f 42/42/42 31/31/31 32/32/32
f 42/42/42 30/30/30 31/31/31
f 11/11/11 30/30/30 42/42/42
f 27/27/27 40/40/40 25/25/25
f 30/30/30 28/28/28 31/31/31
f 1/1/1 3/3/3 5/5/5
