# Blender 3.6.3
# www.blender.org
mtllib stone.mtl
o Stone_group_average
v 0.167880 0.445500 -1.476513
v 1.211267 -0.000000 0.317146
v -0.084169 0.067715 0.566293
v -0.642539 0.000000 -0.422087
v 0.742690 0.656012 0.365445
v -0.483688 0.263657 0.126247
v 0.458947 0.516756 0.679373
v 0.213063 0.410577 0.664393
v -0.277278 0.639518 -0.971510
v 1.124477 0.127730 -1.129880
v 0.517851 1.111324 -0.536255
v -0.369599 0.775983 -0.511930
v -0.513638 0.440257 -0.203508
v 0.582565 0.000000 -0.445024
v 0.892587 0.434645 0.555826
v -0.102625 0.348098 0.574644
v -0.647352 0.097458 -0.159028
v 0.086343 0.218954 -1.402165
v 0.038658 1.074450 -0.243980
v 0.662259 0.885653 -0.950684
v 0.877690 0.347168 -1.402739
v -0.576771 0.305031 -0.467613
v 0.816933 0.181616 0.590543
v 1.479020 -0.000000 -0.368878
v -0.241970 -0.000000 -1.137630
v -0.542721 -0.000000 -0.674021
v -0.575039 -0.000000 -0.056584
v 1.474058 0.047309 -0.079750
v 1.202064 -0.000000 -0.906618
v 0.045231 0.000000 0.019251
v 0.251781 0.000000 0.639655
v -0.302396 0.000000 0.344079
v 0.576978 0.000000 -1.391001
v 1.108846 0.763511 -0.292339
v -0.321005 0.658806 0.097941
v 1.000701 0.754394 -0.928184
v 0.162271 0.680343 -1.344294
v -0.110225 1.018031 -0.501773
v -0.082760 0.869707 -0.884162
v -0.127033 0.590867 0.386873
v 0.619666 0.587077 0.571137
v 0.592986 1.090721 -0.214234
v 1.244411 0.573175 -0.775797
v -0.332879 0.394529 -1.095758
v -0.497035 0.363883 -0.724755
v -0.327299 0.242679 0.369344
v 0.728932 0.373600 0.647353
v 1.374557 0.440682 -0.231991
v 1.417453 0.177813 -0.635298
v 0.535762 0.176273 0.703124
v 0.346463 0.274152 1.112453
v 0.689838 0.000000 0.833969
v 0.509931 0.000000 1.191563
v 0.064732 0.000000 0.886663
v 0.192029 -0.000000 1.128701
v 0.175579 -0.000000 0.700054
v 0.391942 0.145062 1.149724
v 0.190119 0.158122 1.070444
v 0.157157 0.144750 0.819798
v 0.499079 0.110703 0.690914
v 0.589736 0.111715 0.962039
v 0.516170 0.228076 1.035051
v 0.330257 0.265011 1.022671
v 0.553527 0.209596 0.851950
v 0.099629 0.229195 0.447289
v -0.876806 -0.000055 1.363176
v -1.309574 0.002410 0.343050
v -0.557878 -0.000055 -0.014315
v -1.009451 0.366249 1.103994
v -0.940773 0.086067 -0.135094
v -1.393511 0.216911 0.921494
v -1.460289 0.191444 0.639634
v -0.204024 0.270991 0.204085
v -0.180098 0.134506 1.067424
v -0.517443 0.631166 0.681062
v -0.530804 0.282741 0.147803
v -0.706040 0.162500 -0.049447
v -0.539343 -0.000055 0.849295
v -1.058172 0.187012 1.201255
v -1.347430 0.147298 0.286392
v -0.738325 0.013228 -0.113233
v 0.076987 0.084694 0.426741
v -1.013772 0.373983 0.486272
v -0.272200 0.535686 0.707570
v 0.030183 0.237009 0.877015
v -0.504759 0.099944 0.019535
v -1.199853 -0.000055 1.127908
v -0.490681 -0.000055 1.340688
v -0.085507 -0.000055 0.266568
v -0.379018 -0.000055 0.084002
v -0.808284 -0.000055 -0.100514
v -0.621103 -0.000055 1.421379
v -0.275888 -0.000055 1.146240
v -0.891804 -0.000055 0.468212
v -1.396550 -0.000055 0.690531
v -1.097027 -0.000055 0.083064
v 0.034086 -0.000055 0.744283
v -0.699726 0.523865 1.251968
v -1.008015 0.258138 0.012070
v -0.339410 0.499585 0.986043
v 0.001541 0.357902 0.421253
v -0.682865 0.383913 0.291278
v -0.274834 0.404451 0.272012
v -1.257643 0.259652 0.210781
v -1.173765 0.273510 0.982977
v -0.766809 0.602137 0.901077
v -0.467714 0.434699 1.187508
v -0.122904 0.143762 0.189116
v -0.331649 0.119155 0.098860
v -1.141656 0.071425 0.013634
v -1.224524 0.123686 1.066101
v -0.643669 0.312982 1.370088
v -0.442281 0.207386 1.263987
v -1.447784 0.061539 0.945810
vn -0.0000 -1.0000 -0.0000
vn -0.1123 0.8964 -0.4287
vn 0.8161 0.3168 -0.4834
vn 0.3591 0.8665 -0.3467
vn 0.2693 0.6952 -0.6664
vn 0.1568 0.4874 -0.8590
vn -0.1564 0.9170 -0.3669
vn -0.6541 0.6791 -0.3331
vn -0.6403 0.6995 -0.3173
vn -0.1389 0.8032 0.5793
vn -0.7276 0.3724 0.5761
vn -0.3272 0.5573 0.7631
vn -0.1019 0.8965 0.4312
vn 0.5311 0.7380 0.4163
vn 0.7746 0.6317 -0.0315
vn 0.6683 0.3442 -0.6594
vn 0.0055 -0.0386 -0.9992
vn 0.4684 -0.4318 -0.7708
vn 0.0525 -0.3284 -0.9431
vn -0.8597 0.3724 -0.3496
vn -0.5825 0.3882 -0.7141
vn -0.5969 0.4665 -0.6527
vn -0.8381 -0.1409 0.5270
vn -0.6562 -0.0656 0.7518
vn 0.3442 0.4670 0.8145
vn 0.1730 0.1073 0.9791
vn 0.3003 0.4533 0.8392
vn 0.5920 0.7171 0.3677
vn 0.4408 0.7380 0.5110
vn 0.9725 0.2284 -0.0454
vn -0.5418 0.7615 0.3558
vn 0.8315 -0.3538 -0.4283
vn 0.8331 -0.3029 -0.4628
vn -0.6017 -0.0451 -0.7974
vn -0.2409 -0.5795 -0.7786
vn -0.8223 -0.1031 0.5596
vn -0.8462 -0.0729 0.5279
vn -0.8657 -0.4743 0.1599
vn -0.2082 -0.0428 0.9772
vn 0.2567 -0.5923 0.7637
vn 0.7868 0.2730 0.5535
vn 0.4311 -0.7105 -0.5563
vn -0.2763 -0.8095 0.5180
vn 0.6424 0.6144 0.4580
vn -0.8791 0.3823 0.2846
vn -0.8419 0.5135 0.1657
vn -0.6737 0.7139 0.1909
vn -0.5250 0.6515 -0.5477
vn -0.0331 0.9969 0.0715
vn 0.2954 0.6402 -0.7092
vn 0.0125 0.8800 -0.4748
vn -0.1525 0.9802 -0.1264
vn 0.0340 0.8418 0.5387
vn -0.3001 0.5890 0.7504
vn 0.5330 0.8411 -0.0919
vn -0.8713 -0.0576 -0.4874
vn 0.6395 0.7594 -0.1197
vn -0.9412 0.1109 -0.3191
vn -0.8789 0.4033 -0.2547
vn -0.9762 0.1969 -0.0908
vn -0.9149 0.4036 0.0121
vn -0.9296 0.3670 0.0343
vn -0.7400 0.3753 0.5582
vn -0.6836 -0.1446 0.7154
vn 0.5398 -0.0461 0.8406
vn -0.0826 0.0508 0.9953
vn 0.3714 -0.1028 0.9228
vn 0.9577 0.2861 -0.0304
vn 0.8375 0.1836 -0.5147
vn 0.9244 0.3569 -0.1343
vn -0.6041 -0.0548 -0.7951
vn -0.8804 0.3802 0.2836
vn -0.2145 -0.0061 0.9767
vn -0.2382 -0.1700 0.9562
vn 0.2800 -0.6910 0.6664
vn 0.7856 0.3859 0.4836
vn 0.3968 -0.9048 0.1549
vn 0.2410 0.9693 -0.0487
vn 0.8730 0.4699 0.1307
vn 0.9484 -0.0058 -0.3171
vn 0.1469 0.9811 -0.1264
vn -0.1520 0.8643 -0.4794
vn -0.0831 0.8867 -0.4547
vn -0.5983 0.8005 0.0360
vn -0.6004 0.7992 0.0270
vn -0.3539 0.1422 0.9244
vn 0.4678 0.3933 0.7915
vn 0.6862 -0.0224 0.7271
vn 0.6013 0.7726 -0.2039
vn -0.2280 0.6032 -0.7643
vn -0.8234 0.5620 0.0783
vn -0.3278 0.3231 0.8878
vn 0.5895 0.6265 0.5099
vn 0.1952 -0.6324 -0.7497
vn -0.8205 0.2988 -0.4874
vn -0.8738 0.1588 0.4596
vn -0.1925 0.1242 0.9734
vn 0.8591 0.2743 0.4322
vn 0.3176 0.8966 -0.3086
vn 0.5052 0.3919 0.7689
vn 0.3365 0.9201 0.2005
vn 0.6035 0.7793 0.1688
vn 0.7788 0.6167 0.1146
vn -0.0673 0.8552 -0.5139
vn 0.1634 0.5150 -0.8415
vn -0.0686 0.7796 -0.6225
vn -0.4550 0.8899 0.0335
vn -0.6226 -0.0287 -0.7820
vn -0.8333 0.4490 -0.3224
vn -0.2520 0.9677 0.0100
vn -0.5383 0.7948 0.2802
vn 0.4093 0.5263 0.7453
vn 0.6918 0.4310 0.5794
vn 0.9914 -0.0510 0.1203
vn 0.7169 -0.3316 0.6133
vn 0.9715 -0.1750 0.1602
vn 0.3433 0.3227 -0.8820
vn 0.6463 0.3560 -0.6749
vn 0.5583 0.4388 -0.7041
vn -0.3531 -0.7559 -0.5513
vn -0.7833 -0.3930 -0.4816
vn -0.3530 0.5425 0.7623
vn -0.5162 0.3055 0.8001
vn -0.6480 0.5254 0.5514
vn -0.4530 0.5172 0.7262
vn -0.6794 0.4840 0.5516
vn 0.5289 0.1742 0.8306
vn -0.1737 0.9562 -0.2357
vn 0.6665 0.1167 0.7363
vn 0.6056 0.0345 0.7950
vn 0.7616 -0.0273 -0.6475
vn 0.5636 -0.8139 -0.1411
vn -0.3496 -0.7586 -0.5499
vn -0.0721 -0.4652 -0.8823
vn 0.1161 -0.9343 -0.3372
vn -0.9314 -0.3148 -0.1827
vn -0.1879 0.5323 0.8254
vn 0.7756 -0.2018 0.5981
vn -0.0292 -0.9995 -0.0144
vn -0.5317 0.3019 0.7913
vn 0.0573 0.6617 -0.7476
vn 0.1291 0.7916 -0.5972
vn 0.0984 0.8594 -0.5017
vn 0.4596 0.5843 -0.6689
vn -0.3521 0.8927 -0.2813
vn 0.7002 0.6667 0.2554
vn 0.3742 0.9046 -0.2039
vn -0.2778 0.8602 -0.4277
vn -0.6265 0.7793 0.0141
vn -0.3316 0.9434 -0.0067
vn 0.1818 0.9543 0.2374
vn 0.4739 -0.2208 -0.8525
vn 0.4284 0.7442 0.5125
vn 0.4509 -0.0084 -0.8925
vn 0.2176 0.5132 -0.8302
vn 0.4826 0.0398 -0.8750
vn 0.4190 0.5608 -0.7141
vn 0.3896 0.2894 -0.8744
vn -0.6156 0.4351 -0.6571
vn -0.5254 -0.7385 -0.4226
vn -0.6089 0.1562 0.7777
vn -0.9182 0.3498 0.1859
vn -0.5158 0.2983 0.8031
vn 0.5167 0.1883 0.8352
vn 0.6239 0.3110 0.7169
vn 0.5673 0.3189 0.7593
vn 0.7345 -0.1637 -0.6586
vn 0.2217 0.3422 -0.9131
vn -0.9527 0.1903 -0.2371
vn -0.8201 -0.5380 -0.1948
vn -0.3436 -0.9263 0.1545
vn -0.4054 0.1193 0.9063
vt 0.932006 0.646048
vt 0.957313 0.646048
vt 0.955153 0.646049
vt 0.941710 0.646048
vt 0.963025 0.646048
vt 0.975366 0.646048
vt 0.951749 0.646048
vt 0.972459 0.825689
vt 0.963112 0.862283
vt 0.967915 0.968122
vt 0.979668 0.763837
vt 0.974843 0.895647
vt 0.976626 0.712874
vt 0.973794 0.915713
vt 0.973542 0.760317
vt 0.955388 0.874653
vt 0.951465 0.826697
vt 0.961036 0.794088
vt 0.952244 0.871590
vt 0.933027 0.823544
vt 0.947862 0.789972
vt 0.929138 0.758789
vt 0.937520 0.829017
vt 0.932119 0.769800
vt 0.939676 0.768232
vt 0.964747 0.907915
vt 0.962993 0.956084
vt 0.953702 0.834149
vt 0.971844 0.862287
vt 0.965116 0.801546
vt 0.970850 0.688167
vt 0.962179 0.724441
vt 0.954179 0.726278
vt 0.931347 0.646048
vt 0.930653 0.725085
vt 0.934539 0.734832
vt 0.929516 0.667980
vt 0.945146 0.710325
vt 0.935417 0.687922
vt 0.950860 0.739855
vt 0.963070 0.646049
vt 0.970577 0.749083
vt 0.967056 0.646048
vt 0.973174 0.646048
vt 0.937331 0.646048
vt 0.939274 0.683519
vt 0.945089 0.646048
vt 0.945069 0.646049
vt 0.942745 0.773120
vt 0.948041 0.727372
vt 0.974386 0.519603
vt 0.945685 0.519603
vt 0.925981 0.519603
vt 0.947209 0.519603
vt 0.978327 0.519603
vt 0.972716 0.818401
vt 0.965257 0.818402
vt 0.960184 0.868851
vt 0.979802 0.703589
vt 0.959690 0.703590
vt 0.943786 0.855985
vt 0.928676 0.703589
vt 0.940372 0.703589
vt 0.967238 0.703589
s 0
usemtl AllColors_Material
f 31/1/1 14/2/1 2/3/1
f 14/2/1 31/1/1 30/4/1
f 25/5/1 33/6/1 26/7/1
f 37/8/2 39/9/2 11/10/2
f 21/11/3 36/12/3 10/13/3
f 20/14/4 11/10/4 36/12/4
f 21/11/5 37/8/5 36/12/5
f 1/15/6 37/8/6 21/11/6
f 39/9/7 38/16/7 11/10/7
f 12/17/8 39/9/8 9/18/8
f 39/9/9 12/17/9 38/16/9
f 19/19/10 40/20/10 41/21/10
f 16/22/11 40/20/11 35/23/11
f 8/24/12 40/20/12 16/22/12
f 41/21/13 40/20/13 7/25/13
f 34/26/14 42/27/14 5/28/14
f 43/29/15 34/26/15 48/30/15
f 36/12/16 43/29/16 10/13/16
f 18/31/17 21/11/17 33/6/17
f 33/6/18 21/11/18 10/13/18
f 18/31/19 1/15/19 21/11/19
f 9/18/20 44/32/20 45/33/20
f 44/32/21 37/8/21 1/15/21
f 44/32/22 9/18/22 37/8/22
f 32/34/23 46/35/23 6/36/23
f 46/35/24 3/37/24 16/22/24
f 7/25/25 47/38/25 41/21/25
f 47/38/26 7/25/26 50/39/26
f 41/21/27 47/38/27 15/40/27
f 5/28/28 15/40/28 48/30/28
f 41/21/29 15/40/29 5/28/29
f 48/30/30 28/41/30 49/42/30
f 19/19/31 38/16/31 35/23/31 40/20/31
f 49/42/32 24/43/32 29/44/32
f 10/13/33 49/42/33 29/44/33
f 1/15/34 18/31/34 44/32/34
f 25/5/35 18/31/35 33/6/35
f 6/36/36 27/45/36 32/34/36
f 6/36/37 17/46/37 27/45/37
f 27/45/38 17/46/38 4/47/38
f 50/39/39 16/22/39 3/37/39
f 2/3/40 23/48/40 31/1/40
f 28/41/41 15/40/41 2/3/41
f 10/13/42 29/44/42 33/6/42
f 30/4/1 31/1/1 32/34/1
f 26/7/1 33/6/1 24/43/1
f 14/2/1 26/7/1 24/43/1
f 3/37/43 32/34/43 31/1/43
f 27/45/1 4/47/1 26/7/1
f 48/30/44 34/26/44 5/28/44
f 6/36/45 35/23/45 13/49/45
f 13/49/46 35/23/46 12/17/46
f 38/16/47 12/17/47 35/23/47
f 37/8/48 9/18/48 39/9/48
f 19/19/49 42/27/49 11/10/49
f 36/12/50 37/8/50 20/14/50
f 11/10/51 20/14/51 37/8/51
f 11/10/52 38/16/52 19/19/52
f 19/19/53 41/21/53 5/28/53 42/27/53
f 8/24/54 7/25/54 40/20/54
f 34/26/55 36/12/55 11/10/55 42/27/55
f 44/32/56 25/5/56 26/7/56 45/33/56
f 34/26/57 43/29/57 36/12/57
f 26/7/58 4/47/58 22/50/58 45/33/58
f 12/17/59 9/18/59 45/33/59 22/50/59
f 4/47/60 17/46/60 22/50/60
f 12/17/61 22/50/61 13/49/61
f 13/49/62 22/50/62 17/46/62
f 46/35/63 16/22/63 35/23/63 6/36/63
f 3/37/64 46/35/64 32/34/64
f 23/48/65 2/3/65 15/40/65 47/38/65
f 50/39/66 7/25/66 8/24/66
f 23/48/67 47/38/67 50/39/67
f 49/42/68 28/41/68 24/43/68
f 43/29/69 49/42/69 10/13/69
f 48/30/70 49/42/70 43/29/70
f 25/5/71 44/32/71 18/31/71
f 13/49/72 17/46/72 6/36/72
f 31/1/73 50/39/73 3/37/73
f 8/24/74 16/22/74 50/39/74
f 50/39/75 31/1/75 23/48/75
f 48/30/76 15/40/76 28/41/76
f 28/41/77 2/3/77 24/43/77
f 24/43/1 33/6/1 29/44/1
f 30/4/1 26/7/1 14/2/1
f 27/45/1 26/7/1 30/4/1
f 32/34/1 27/45/1 30/4/1
f 24/43/1 2/3/1 14/2/1
f 53/51/1 55/52/1 54/53/1
f 53/51/1 54/53/1 56/54/1
f 53/51/1 56/54/1 52/55/1
f 62/56/78 64/57/78 51/58/78
f 62/56/79 61/59/79 64/57/79
f 61/59/80 60/60/80 64/57/80
f 64/57/81 63/61/81 51/58/81
f 64/57/82 60/60/82 63/61/82
f 60/60/83 59/62/83 63/61/83
f 59/62/84 58/63/84 63/61/84
f 63/61/85 58/63/85 51/58/85
f 58/63/86 57/64/86 51/58/86
f 51/58/87 57/64/87 62/56/87
f 57/64/88 61/59/88 62/56/88
f 52/55/89 60/60/89 61/59/89
f 56/54/90 59/62/90 60/60/90
f 54/53/91 58/63/91 59/62/91
f 55/52/92 57/64/92 58/63/92
f 53/51/93 61/59/93 57/64/93
f 52/55/94 56/54/94 60/60/94
f 56/54/95 54/53/95 59/62/95
f 54/53/96 55/52/96 58/63/96
f 55/52/97 53/51/97 57/64/97
f 53/51/98 52/55/98 61/59/98
f 95/1/1 78/2/1 66/3/1
f 78/2/1 95/1/1 94/4/1
f 89/5/1 97/6/1 90/7/1
f 101/8/99 103/9/99 75/10/99
f 85/11/100 100/12/100 74/13/100
f 84/14/101 75/10/101 100/12/101
f 85/11/102 101/8/102 100/12/102
f 65/15/103 101/8/103 85/11/103
f 103/9/104 102/16/104 75/10/104
f 76/17/105 103/9/105 73/18/105
f 103/9/106 76/17/106 102/16/106
f 83/19/107 104/20/107 105/21/107
f 80/22/108 104/20/108 99/23/108
f 72/24/109 104/20/109 80/22/109
f 105/21/110 104/20/110 71/25/110
f 98/26/111 106/27/111 69/28/111
f 107/29/112 98/26/112 112/30/112
f 100/12/113 107/29/113 74/13/113
f 82/31/114 85/11/114 97/6/114
f 97/6/115 85/11/115 74/13/115
f 82/31/116 65/15/116 85/11/116
f 73/18/117 108/32/117 109/33/117
f 108/32/118 101/8/118 65/15/118
f 108/32/119 73/18/119 101/8/119
f 96/34/120 110/35/120 70/36/120
f 110/35/121 67/37/121 80/22/121
f 71/25/122 111/38/122 105/21/122
f 111/38/123 71/25/123 114/39/123
f 105/21/124 111/38/124 79/40/124
f 69/28/125 79/40/125 112/30/125
f 105/21/126 79/40/126 69/28/126
f 112/30/127 92/41/127 113/42/127
f 83/19/128 102/16/128 99/23/128 104/20/128
f 113/42/129 88/43/129 93/44/129
f 74/13/130 113/42/130 93/44/130
f 65/15/131 82/31/131 108/32/131
f 89/5/132 82/31/132 97/6/132
f 70/36/133 91/45/133 96/34/133
f 70/36/134 81/46/134 91/45/134
f 91/45/135 81/46/135 68/47/135
f 114/39/136 80/22/136 67/37/136
f 66/3/1 87/48/1 95/1/1
f 92/41/137 79/40/137 66/3/137
f 74/13/138 93/44/138 97/6/138
f 94/4/1 95/1/1 96/34/1
f 90/7/1 97/6/1 88/43/1
f 78/2/1 90/7/1 88/43/1
f 67/37/139 96/34/139 95/1/139
f 91/45/1 68/47/1 90/7/1
f 112/30/140 98/26/140 69/28/140
f 70/36/141 99/23/141 77/49/141
f 77/49/142 99/23/142 76/17/142
f 102/16/143 76/17/143 99/23/143
f 101/8/144 73/18/144 103/9/144
f 83/19/145 106/27/145 75/10/145
f 100/12/146 101/8/146 84/14/146
f 75/10/147 84/14/147 101/8/147
f 75/10/148 102/16/148 83/19/148
f 83/19/149 105/21/149 69/28/149 106/27/149
f 72/24/150 71/25/150 104/20/150
f 98/26/151 100/12/151 75/10/151 106/27/151
f 108/32/152 89/5/152 90/7/152 109/33/152
f 98/26/153 107/29/153 100/12/153
f 90/7/154 68/47/154 86/50/154 109/33/154
f 76/17/155 73/18/155 109/33/155 86/50/155
f 68/47/156 81/46/156 86/50/156
f 76/17/157 86/50/157 77/49/157
f 77/49/158 86/50/158 81/46/158
f 110/35/159 80/22/159 99/23/159 70/36/159
f 67/37/160 110/35/160 96/34/160
f 87/48/161 66/3/161 79/40/161 111/38/161
f 114/39/162 71/25/162 72/24/162
f 87/48/163 111/38/163 114/39/163
f 113/42/164 92/41/164 88/43/164
f 107/29/165 113/42/165 74/13/165
f 112/30/166 113/42/166 107/29/166
f 89/5/167 108/32/167 82/31/167
f 77/49/168 81/46/168 70/36/168
f 95/1/169 114/39/169 67/37/169
f 72/24/170 80/22/170 114/39/170
f 114/39/171 95/1/171 87/48/171
f 112/30/172 79/40/172 92/41/172
f 92/41/1 66/3/1 88/43/1
f 88/43/1 97/6/1 93/44/1
f 94/4/1 90/7/1 78/2/1
f 91/45/1 90/7/1 94/4/1
f 96/34/1 91/45/1 94/4/1
f 88/43/1 66/3/1 78/2/1
