# Blender 4.4.3
# www.blender.org
mtllib vidro.mtl
o Plane.001
v 1.463226 3.757311 1.091753
v 2.003578 3.757311 1.091753
v 1.394316 5.350698 1.561713
v 2.072488 5.350698 1.561713
v 1.463226 3.757311 0.070850
v 2.003578 3.757311 0.070850
v 1.394316 5.350698 -0.399110
v 2.072488 5.350698 -0.399110
v 1.222951 3.757311 0.311126
v 1.222951 3.757311 0.851478
v 0.752991 5.350698 0.242216
v 0.752991 5.350698 0.920388
v 2.243854 3.757311 0.311125
v 2.243854 3.757311 0.851477
v 2.713814 5.350698 0.242215
v 2.713814 5.350698 0.920388
v 1.563502 3.757311 0.029315
v 1.181416 3.757311 0.411401
v 1.279917 5.350698 -0.351724
v 0.800376 5.350698 0.127816
v 2.285389 3.757311 0.751202
v 1.903303 3.757311 1.133288
v 2.666428 5.350698 1.034787
v 2.186888 5.350698 1.514327
v 2.666428 5.350698 0.127816
v 2.186888 5.350698 -0.351724
v 2.285389 3.757311 0.411401
v 1.903302 3.757311 0.029315
v 1.279917 5.350698 1.514327
v 0.800377 5.350698 1.034787
v 1.563502 3.757311 1.133288
v 1.181415 3.757311 0.751202
vn -0.0000 -0.2829 0.9592
vn -0.0000 -0.2829 -0.9592
vn -0.9592 -0.2829 -0.0000
vn 0.9592 -0.2829 -0.0000
vn -0.6782 -0.2829 -0.6782
vn 0.6782 -0.2829 0.6782
vn 0.6782 -0.2829 -0.6782
vn -0.6782 -0.2829 0.6782
vt 0.187100 0.585100
vt 0.322000 0.585100
vt 0.339200 0.999800
vt 0.169900 0.999800
vt 0.152300 0.000200
vt 0.169500 0.414900
vt 0.000200 0.414900
vt 0.017400 0.000200
vt 0.696300 0.169900
vt 0.831200 0.169900
vt 0.848400 0.584600
vt 0.679100 0.584600
vt 0.152300 0.415400
vt 0.169500 0.830100
vt 0.000200 0.830100
vt 0.017400 0.415400
vt 0.187100 0.169900
vt 0.322000 0.169900
vt 0.339200 0.584600
vt 0.169900 0.584600
vt 0.661500 0.169900
vt 0.678700 0.584600
vt 0.509400 0.584600
vt 0.526600 0.169900
vt 0.169900 0.017400
vt 0.584600 0.000200
vt 0.584600 0.169500
vt 0.169900 0.152300
vt 0.356900 0.169900
vt 0.491800 0.169900
vt 0.509000 0.584600
vt 0.339700 0.584600
s 1
usemtl Material.005
f 1/1/1 2/2/1 4/3/1 3/4/1
f 5/5/2 7/6/2 8/7/2 6/8/2
f 9/9/3 10/10/3 12/11/3 11/12/3
f 13/13/4 15/14/4 16/15/4 14/16/4
f 17/17/5 18/18/5 20/19/5 19/20/5
f 21/21/6 23/22/6 24/23/6 22/24/6
f 28/25/7 26/26/7 25/27/7 27/28/7
f 32/29/8 31/30/8 29/31/8 30/32/8
