# Blender 3.6.3
# www.blender.org
mtllib body.mtl
g Object_2_Object_0
v -0.343472 0.231999 0.374016
v -0.212098 0.157403 0.379980
v -0.230856 0.222229 0.467947
v -0.343357 0.167195 0.222456
v -0.423125 0.264488 0.217311
v -0.392127 0.223658 0.006286
v -0.464576 0.369202 0.005856
v -0.424365 0.349183 -0.188718
v -0.416792 0.576385 -0.261523
v -0.331657 0.349182 -0.338688
v -0.255731 0.576162 -0.418938
v -0.184347 0.349180 -0.425446
v 0.001108 0.575120 -0.474783
v 0.001108 0.349176 -0.464902
v 0.187856 0.349180 -0.425446
v 0.001108 0.202110 -0.389912
v 0.176367 0.202110 -0.344439
v 0.001108 0.094592 -0.221110
v 0.236207 0.125785 -0.089393
v 0.001108 0.050398 0.005313
v 0.204965 0.106492 0.239820
v 0.001108 0.084875 0.261214
v 0.214315 0.157403 0.379980
v 0.001108 0.136755 0.404978
v 0.345574 0.167195 0.222456
v 0.425342 0.264488 0.217311
v 0.340024 0.231999 0.374016
v 0.394344 0.223658 0.006286
v 0.315541 0.202110 -0.213650
v 0.336460 0.349182 -0.338688
v 0.257948 0.576162 -0.418938
v 0.171108 0.761750 -0.399371
v 0.001108 0.761749 -0.432673
v 0.001108 0.899362 -0.341652
v -0.168891 0.761750 -0.399371
v -0.189054 0.894893 -0.298307
v -0.309066 0.761750 -0.307736
v -0.291332 0.909152 -0.171217
v -0.380509 0.761749 -0.185399
v -0.404138 0.786234 0.004810
v -0.480657 0.578070 0.005856
v -0.385812 0.785788 0.182578
v -0.293164 0.913861 0.119067
v -0.301423 0.930103 0.004901
v -0.162940 0.990234 0.150937
v -0.175604 1.019210 0.004899
v 0.001108 1.017616 0.166578
v 0.001108 1.040345 0.004810
v 0.177820 1.019210 0.004899
v 0.001108 1.008716 -0.168885
v 0.165157 0.984703 -0.155390
v 0.191270 0.894893 -0.298307
v 0.293549 0.909152 -0.171217
v 0.311283 0.761750 -0.307736
v 0.379069 0.761749 -0.184841
v 0.419009 0.576385 -0.261523
v 0.482874 0.578070 0.005856
v 0.466793 0.369202 0.005856
v 0.462861 0.413400 0.232119
v 0.416410 0.459704 0.384849
v 0.408821 0.345553 0.392639
v 0.462861 0.413400 0.232119
v 0.254295 0.339533 0.526148
v 0.246113 0.466858 0.516317
v 0.001108 0.457734 0.569958
v 0.111421 0.576017 0.491217
v 0.001108 0.576136 0.507100
v 0.001108 0.804074 0.434785
v -0.109204 0.576017 0.491217
v -0.098468 0.793973 0.421322
v -0.219517 0.575897 0.458408
v -0.196671 0.783871 0.390899
v -0.367162 0.577202 0.352812
v -0.321732 0.761885 0.314649
v -0.385812 0.785788 0.182578
v -0.243321 0.904468 0.229288
v -0.293164 0.913861 0.119067
v -0.162940 0.990234 0.150937
v -0.155930 0.912725 0.296515
v 0.001108 0.936821 0.325681
v 0.100684 0.793973 0.421322
v 0.221733 0.575897 0.458408
v 0.369379 0.577202 0.352812
v 0.428175 0.578070 0.228343
v -0.202748 0.106492 0.239820
v -0.233990 0.125785 -0.089393
v -0.307113 0.202110 -0.213125
v 0.388028 0.785788 0.182578
v 0.323948 0.761885 0.314649
v 0.245538 0.904468 0.229288
v 0.158147 0.912725 0.296515
v 0.165157 0.990234 0.150937
v 0.001108 1.017616 0.166578
v 0.165157 0.990234 0.150937
v 0.303639 0.930103 0.004901
v 0.295381 0.913861 0.119067
v 0.406355 0.786234 0.004810
v 0.388028 0.785788 0.182578
v 0.428175 0.578070 0.228343
v -0.414193 0.459704 0.384849
v -0.243897 0.466858 0.516317
v -0.252078 0.339533 0.526148
v -0.400573 0.345553 0.392639
v -0.230856 0.222229 0.467947
v -0.343472 0.231999 0.374016
v 0.233072 0.222229 0.467947
v 0.001108 0.330844 0.580616
v -0.174150 0.202110 -0.344439
v -0.460644 0.413400 0.232119
v -0.425958 0.578070 0.228343
v 0.233072 0.222229 0.467947
v 0.426582 0.349183 -0.188718
v 0.198888 0.783871 0.390899
v 0.001108 0.213101 0.513022
v -0.212098 0.157403 0.379980
v 0.001108 0.136755 0.404978
v -0.162940 0.984703 -0.155390
v 0.214315 0.157403 0.379980
v 0.425342 0.264488 0.217311
v 0.462861 0.413400 0.232119
v 0.340024 0.231999 0.374016
v -0.423125 0.264488 0.217311
v -0.460644 0.413400 0.232119
v -0.425958 0.578070 0.228343
v 0.295381 0.913861 0.119067
v -0.425958 0.578070 0.228343
v 0.428175 0.578070 0.228343
v -0.460644 0.413400 0.232119
vn -0.6442 -0.6333 0.4289
vn -0.2753 -0.8633 0.4231
vn -0.3827 -0.5887 0.7120
vn -0.5807 -0.8024 0.1372
vn -0.8790 -0.4543 0.1451
vn -0.7643 -0.6352 -0.1116
vn -0.9704 -0.2249 -0.0879
vn -0.8777 -0.3536 -0.3235
vn -0.8847 0.0877 -0.4578
vn -0.6619 -0.3209 -0.6774
vn -0.4896 0.0962 -0.8666
vn -0.3065 -0.2748 -0.9113
vn -0.0002 0.0858 -0.9963
vn -0.0007 -0.2553 -0.9669
vn 0.3048 -0.2750 -0.9119
vn -0.0002 -0.6163 -0.7875
vn 0.3478 -0.7226 -0.5974
vn -0.0000 -0.9303 -0.3669
vn 0.3905 -0.9060 -0.1635
vn -0.0000 -0.9996 -0.0283
vn 0.2756 -0.9504 0.1440
vn -0.0000 -0.9629 0.2700
vn 0.2800 -0.8612 0.4241
vn -0.0000 -0.8867 0.4623
vn 0.5828 -0.7998 0.1438
vn 0.8740 -0.4642 0.1436
vn 0.6359 -0.6462 0.4219
vn 0.7663 -0.6337 -0.1058
vn 0.6240 -0.6925 -0.3622
vn 0.6632 -0.3150 -0.6789
vn 0.4890 0.0984 -0.8667
vn 0.2991 0.4009 -0.8659
vn -0.0000 0.3927 -0.9197
vn -0.0000 0.6731 -0.7395
vn -0.2991 0.4009 -0.8659
vn -0.3454 0.7125 -0.6108
vn -0.6550 0.4199 -0.6282
vn -0.6763 0.6649 -0.3171
vn -0.8651 0.4036 -0.2978
vn -0.8640 0.5031 -0.0212
vn -0.9829 0.1841 -0.0029
vn -0.8408 0.4466 0.3060
vn -0.6763 0.7052 0.2129
vn -0.6462 0.7632 0.0073
vn -0.3847 0.8633 0.3266
vn -0.2968 0.9549 -0.0107
vn -0.0000 0.9630 0.2695
vn -0.0000 0.9998 -0.0201
vn 0.2968 0.9549 -0.0107
vn -0.0000 0.9302 -0.3670
vn 0.3694 0.8770 -0.3073
vn 0.3454 0.7124 -0.6108
vn 0.6807 0.6604 -0.3173
vn 0.6600 0.4201 -0.6228
vn 0.8667 0.4018 -0.2957
vn 0.8866 0.0935 -0.4530
vn 0.9824 0.1866 -0.0054
vn 0.9704 -0.2249 -0.0879
vn 0.9825 -0.0369 0.1824
vn 0.8041 0.1985 0.5604
vn 0.8022 -0.3066 0.5123
vn 0.4397 -0.1112 0.8912
vn 0.4006 0.3493 0.8471
vn -0.0000 0.2746 0.9616
vn 0.1989 0.4033 0.8932
vn -0.0000 0.3901 0.9208
vn -0.0000 0.4792 0.8777
vn -0.1989 0.4032 0.8932
vn -0.2294 0.5129 0.8272
vn -0.4043 0.4097 0.8177
vn -0.4404 0.4413 0.7819
vn -0.6880 0.3691 0.6248
vn -0.6234 0.5063 0.5959
vn -0.5632 0.7056 0.4300
vn -0.3656 0.7067 0.6057
vn -0.0000 0.7819 0.6235
vn 0.2294 0.5129 0.8272
vn 0.4043 0.4097 0.8178
vn 0.6880 0.3691 0.6248
vn 0.9146 0.2696 0.3015
vn -0.2756 -0.9504 0.1440
vn -0.3942 -0.9038 -0.1667
vn -0.6210 -0.6937 -0.3649
vn 0.8408 0.4466 0.3060
vn 0.6234 0.5063 0.5959
vn 0.5632 0.7056 0.4300
vn 0.3656 0.7067 0.6057
vn 0.3847 0.8633 0.3266
vn 0.6462 0.7632 0.0077
vn 0.6763 0.7052 0.2129
vn 0.8653 0.5006 -0.0268
vn -0.8071 0.1837 0.5612
vn -0.4006 0.3493 0.8471
vn -0.4454 -0.1173 0.8876
vn -0.8022 -0.2973 0.5177
vn 0.3829 -0.5973 0.7047
vn -0.0000 -0.3083 0.9513
vn -0.3540 -0.7214 -0.5952
vn -0.9807 -0.0455 0.1902
vn -0.9146 0.2696 0.3015
vn 0.8838 -0.3441 -0.3169
vn 0.4404 0.4413 0.7818
vn -0.0000 -0.7271 0.6865
vn -0.3694 0.8770 -0.3073
vn 0.6359 -0.6463 0.4219
vn -0.8071 0.1836 0.5612
vt 0.053597 0.182273
vt 0.048379 0.194787
vt 0.031628 0.182278
vt 0.088340 0.194657
vt 0.085669 0.176064
vt 0.128860 0.191065
vt 0.128948 0.156053
vt 0.166175 0.159878
vt 0.180080 0.116459
vt 0.194818 0.159878
vt 0.210145 0.116502
vt 0.211388 0.159879
vt 0.220811 0.116701
vt 0.218924 0.159880
vt 0.205626 0.187985
vt 0.196828 0.187985
vt 0.175400 0.208532
vt 0.148442 0.208944
vt 0.129059 0.216977
vt 0.081062 0.206258
vt 0.076684 0.210389
vt 0.043263 0.198732
vt 0.171839 0.187984
vt 0.206408 0.081035
vt 0.212768 0.081035
vt 0.194929 0.054736
vt 0.180669 0.055708
vt 0.188907 0.081035
vt 0.152320 0.052866
vt 0.165542 0.081035
vt 0.129162 0.076356
vt 0.128948 0.116137
vt 0.092778 0.076441
vt 0.099781 0.050240
vt 0.129143 0.047137
vt 0.093258 0.035990
vt 0.129143 0.031833
vt 0.090057 0.032138
vt 0.129162 0.027794
vt 0.166760 0.035369
vt 0.161950 0.038779
vt 0.165435 0.081035
vt 0.082639 0.147606
vt 0.387656 0.570494
vt 0.395482 0.737440
vt 0.089463 0.738766
vt 0.580069 0.727562
vt 0.583861 0.658933
vt 0.980488 0.664689
vt 0.802869 0.465570
vt 0.940932 0.461155
vt 0.931495 0.250125
vt 0.810299 0.255534
vt 0.646856 0.448188
vt 0.683442 0.251087
vt 0.439383 0.411667
vt 0.499393 0.263828
vt 0.308248 0.209619
vt 0.540339 0.105887
vt 0.406821 0.091497
vt 0.536488 0.045038
vt 0.691280 0.071762
vt 0.937113 0.024128
vt 0.439876 0.411685
vt 0.257815 0.363290
vt 0.171732 0.187985
vt 0.694780 0.000950
vt 0.083411 0.116137
vt 0.676961 0.915995
vt 0.361747 0.849034
vt 0.958134 0.800166
vt 0.920343 0.947697
vt 0.712362 0.996993
vt 0.899390 0.997207
vt 0.215882 0.865164
vt 0.160080 0.701014
vt 0.258307 0.363307
s 1
usemtl mat2
f 1/1/1 2/2/2 3/3/3
f 1/1/1 4/4/4 2/2/2
f 5/5/5 4/4/4 1/1/1
f 5/5/5 6/6/6 4/4/4
f 7/7/7 6/6/6 5/5/5
f 7/7/7 8/8/8 6/6/6
f 9/9/9 8/8/8 7/7/7
f 9/9/9 10/10/10 8/8/8
f 11/11/11 10/10/10 9/9/9
f 11/11/11 12/12/12 10/10/10
f 13/13/13 12/12/12 11/11/11
f 13/13/13 14/14/14 12/12/12
f 15/12/15 14/14/14 13/13/13
f 15/12/15 16/15/16 14/14/14
f 17/16/17 16/15/16 15/12/15
f 17/16/17 18/17/18 16/15/16
f 19/18/19 18/17/18 17/16/17
f 19/18/19 20/19/20 18/17/18
f 21/20/21 20/19/20 19/18/19
f 21/20/21 22/21/22 20/19/20
f 23/2/23 22/21/22 21/20/21
f 23/2/23 24/22/24 22/21/22
f 25/4/25 26/5/26 27/1/27
f 25/4/25 28/6/28 26/5/26
f 19/18/19 28/6/28 25/4/25
f 19/18/19 29/23/29 28/6/28
f 17/16/17 29/23/29 19/18/19
f 17/16/17 30/10/30 29/23/29
f 15/12/15 30/10/30 17/16/17
f 15/12/15 31/11/31 30/10/30
f 13/13/13 31/11/31 15/12/15
f 13/13/13 32/24/32 31/11/31
f 33/25/33 32/24/32 13/13/13
f 33/25/33 34/26/34 32/24/32
f 35/24/35 34/26/34 33/25/33
f 35/24/35 36/27/36 34/26/34
f 37/28/37 36/27/36 35/24/35
f 37/28/37 38/29/38 36/27/36
f 39/30/39 38/29/38 37/28/37
f 39/30/39 40/31/40 38/29/38
f 41/32/41 40/31/40 39/30/39
f 41/32/41 42/33/42 40/31/40
f 43/34/43 40/31/40 42/33/42
f 43/34/43 44/35/44 40/31/40
f 45/36/45 44/35/44 43/34/43
f 45/36/45 46/37/46 44/35/44
f 47/38/47 46/37/46 45/36/45
f 47/38/47 48/39/48 46/37/46
f 49/37/49 48/39/48 47/38/47
f 49/37/49 50/40/50 48/39/48
f 51/41/51 50/40/50 49/37/49
f 51/41/51 52/27/52 50/40/50
f 53/29/53 52/27/52 51/41/51
f 53/29/53 54/28/54 52/27/52
f 55/42/55 54/28/54 53/29/53
f 55/42/55 56/9/56 54/28/54
f 57/32/57 56/9/56 55/42/55
f 57/32/57 58/7/58 56/9/56
f 59/43/59 58/7/58 57/32/57
f 59/43/59 26/5/26 58/7/58
f 60/44/60 61/45/61 62/46/59
f 60/44/60 63/47/62 61/45/61
f 64/48/63 63/47/62 60/44/60
f 64/48/63 65/49/64 63/47/62
f 66/50/65 65/49/64 64/48/63
f 66/50/65 67/51/66 65/49/64
f 68/52/67 67/51/66 66/50/65
f 68/52/67 69/50/68 67/51/66
f 70/53/69 69/50/68 68/52/67
f 70/53/69 71/54/70 69/50/68
f 72/55/71 71/54/70 70/53/69
f 72/55/71 73/56/72 71/54/70
f 74/57/73 73/56/72 72/55/71
f 74/57/73 75/58/42 73/56/72
f 76/59/74 75/58/42 74/57/73
f 76/59/74 77/60/43 75/58/42
f 78/61/45 77/60/43 76/59/74
f 70/53/69 79/62/75 72/55/71
f 70/53/69 80/63/76 79/62/75
f 68/52/67 80/63/76 70/53/69
f 68/52/67 81/53/77 80/63/76
f 66/50/65 81/53/77 68/52/67
f 66/50/65 82/54/78 81/53/77
f 64/48/63 82/54/78 66/50/65
f 64/48/63 83/64/79 82/54/78
f 60/44/60 83/64/79 64/48/63
f 60/44/60 84/65/80 83/64/79
f 2/2/2 22/21/22 24/22/24
f 2/2/2 85/20/81 22/21/22
f 4/4/4 85/20/81 2/2/2
f 4/4/4 86/18/82 85/20/81
f 6/6/6 86/18/82 4/4/4
f 6/6/6 87/66/83 86/18/82
f 8/8/8 87/66/83 6/6/6
f 8/8/8 10/10/10 87/66/83
f 88/58/84 83/64/79 84/65/80
f 88/58/84 89/57/85 83/64/79
f 90/59/86 89/57/85 88/58/84
f 90/59/86 91/62/87 89/57/85
f 92/61/88 91/62/87 90/59/86
f 92/61/88 80/63/76 91/62/87
f 93/67/47 80/63/76 92/61/88
f 93/67/47 78/61/45 80/63/76
f 94/36/88 49/37/49 47/38/47
f 94/36/88 95/35/89 49/37/49
f 96/34/90 95/35/89 94/36/88
f 96/34/90 97/31/91 95/35/89
f 98/33/84 97/31/91 96/34/90
f 98/33/84 57/32/57 97/31/91
f 99/68/80 57/32/57 98/33/84
f 99/68/80 59/43/59 57/32/57
f 100/44/92 101/48/93 73/56/72
f 100/44/92 102/47/94 101/48/93
f 103/45/95 102/47/94 100/44/92
f 103/45/95 104/69/3 102/47/94
f 105/70/1 104/69/3 103/45/95
f 95/35/89 51/41/51 49/37/49
f 95/35/89 53/29/53 51/41/51
f 97/31/91 53/29/53 95/35/89
f 97/31/91 55/42/55 53/29/53
f 57/32/57 55/42/55 97/31/91
f 63/47/62 106/69/96 61/45/61
f 63/47/62 107/71/97 106/69/96
f 65/49/64 107/71/97 63/47/62
f 65/49/64 102/47/94 107/71/97
f 101/48/93 102/47/94 65/49/64
f 37/28/37 9/9/9 39/30/39
f 37/28/37 11/11/11 9/9/9
f 35/24/35 11/11/11 37/28/37
f 35/24/35 13/13/13 11/11/11
f 33/25/33 13/13/13 35/24/35
f 69/50/68 65/49/64 67/51/66
f 69/50/68 101/48/93 65/49/64
f 71/54/70 101/48/93 69/50/68
f 71/54/70 73/56/72 101/48/93
f 86/18/82 18/17/18 20/19/20
f 86/18/82 108/16/98 18/17/18
f 87/66/83 108/16/98 86/18/82
f 87/66/83 10/10/10 108/16/98
f 109/43/99 7/7/7 5/5/5
f 109/43/99 41/32/41 7/7/7
f 110/68/100 41/32/41 109/43/99
f 110/68/100 42/33/42 41/32/41
f 23/2/23 27/1/27 111/3/96
f 23/2/23 25/4/25 27/1/27
f 21/20/21 25/4/25 23/2/23
f 21/20/21 19/18/19 25/4/25
f 28/6/28 58/7/58 26/5/26
f 28/6/28 112/8/101 58/7/58
f 29/23/29 112/8/101 28/6/28
f 29/23/29 30/10/30 112/8/101
f 81/53/77 91/62/87 80/63/76
f 81/53/77 113/55/102 91/62/87
f 82/54/78 113/55/102 81/53/77
f 82/54/78 83/64/79 113/55/102
f 104/69/3 107/71/97 102/47/94
f 104/69/3 114/72/103 107/71/97
f 115/73/2 114/72/103 104/69/3
f 115/73/2 116/74/24 114/72/103
f 50/40/50 46/37/46 48/39/48
f 50/40/50 117/41/104 46/37/46
f 36/27/36 117/41/104 50/40/50
f 36/27/36 38/29/38 117/41/104
f 56/9/56 30/10/30 31/11/31
f 56/9/56 112/8/101 30/10/30
f 58/7/58 112/8/101 56/9/56
f 114/72/103 106/69/96 107/71/97
f 114/72/103 118/73/23 106/69/96
f 116/74/24 118/73/23 114/72/103
f 16/15/16 12/12/12 14/14/14
f 16/15/16 108/16/98 12/12/12
f 18/17/18 108/16/98 16/15/16
f 61/45/61 119/75/26 120/76/59
f 61/45/61 121/70/105 119/75/26
f 106/69/96 121/70/105 61/45/61
f 52/27/52 32/24/32 34/26/34
f 52/27/52 54/28/54 32/24/32
f 50/40/50 34/26/34 36/27/36
f 50/40/50 52/27/52 34/26/34
f 85/20/81 20/19/20 22/21/22
f 85/20/81 86/18/82 20/19/20
f 122/75/5 103/45/95 123/76/99
f 122/75/5 105/70/1 103/45/95
f 124/77/100 73/56/72 75/58/42
f 124/77/100 100/44/92 73/56/72
f 78/61/45 79/62/75 80/63/76
f 78/61/45 76/59/74 79/62/75
f 125/60/90 90/59/86 88/58/84
f 125/60/90 92/61/88 90/59/86
f 41/32/41 9/9/9 7/7/7
f 41/32/41 39/30/39 9/9/9
f 117/41/104 44/35/44 46/37/46
f 117/41/104 38/29/38 44/35/44
f 89/57/85 113/55/102 83/64/79
f 89/57/85 91/62/87 113/55/102
f 54/28/54 31/11/31 32/24/32
f 54/28/54 56/9/56 31/11/31
f 79/62/75 74/57/73 72/55/71
f 79/62/75 76/59/74 74/57/73
f 123/76/99 100/44/106 126/65/100
f 120/76/59 127/77/80 60/44/60
f 100/44/92 128/46/99 103/45/95
f 38/29/38 40/31/40 44/35/44
f 12/12/12 108/16/98 10/10/10
