# Blender 4.4.3
# www.blender.org
mtllib Chaminé.mtl
o komin
v -0.041126 0.055319 0.033058
v -0.040746 0.055344 0.033421
v -0.040885 0.060777 0.033133
v -0.041271 0.060743 0.032767
v -0.035356 0.055321 0.033004
v -0.035697 0.055348 0.033359
v -0.035708 0.060820 0.033029
v -0.035356 0.060790 0.032663
v -0.041183 0.065702 0.032948
v -0.041583 0.065667 0.032565
v -0.035730 0.065778 0.032810
v -0.035356 0.065749 0.032420
v -0.041516 0.070488 0.033002
v -0.041931 0.070458 0.032597
v -0.035756 0.070577 0.032856
v -0.035356 0.070555 0.032438
v -0.041752 0.075177 0.033257
v -0.042175 0.075158 0.032832
v -0.035775 0.075252 0.033139
v -0.035356 0.075239 0.032700
v -0.041752 0.075011 0.026148
v -0.042175 0.075018 0.026597
v -0.035775 0.075040 0.026058
v -0.035356 0.075053 0.026493
v -0.041516 0.070172 0.026162
v -0.041931 0.070188 0.026591
v -0.035756 0.070204 0.026107
v -0.035356 0.070227 0.026522
v -0.041183 0.065274 0.026485
v -0.041583 0.065298 0.026883
v -0.035730 0.065295 0.026504
v -0.035356 0.065325 0.026892
v -0.040885 0.060318 0.027006
v -0.041271 0.060347 0.027373
v -0.035708 0.060316 0.027107
v -0.035356 0.060347 0.027473
v -0.041126 0.055386 0.027793
v -0.040746 0.055357 0.027444
v -0.035356 0.055351 0.027962
v -0.035697 0.055324 0.027606
v -0.041309 0.079902 0.032246
v -0.041309 0.079868 0.027639
v -0.041000 0.079908 0.032566
v -0.036584 0.079944 0.032524
v -0.036272 0.079940 0.032199
v -0.036272 0.079884 0.027578
v -0.041000 0.079867 0.027309
v -0.036584 0.079880 0.027254
v -0.041309 0.072199 0.032246
v -0.041309 0.072165 0.027639
v -0.041000 0.072206 0.032566
v -0.036584 0.072241 0.032524
v -0.036272 0.072238 0.032199
v -0.036272 0.072181 0.027578
v -0.041000 0.072164 0.027309
v -0.036584 0.072177 0.027254
v -0.042223 0.079628 0.033081
v -0.041975 0.079903 0.033018
v -0.042223 0.079598 0.026801
v -0.041979 0.079868 0.026888
v -0.041801 0.079630 0.033516
v -0.041685 0.079908 0.033309
v -0.035781 0.079665 0.033454
v -0.035905 0.079944 0.033250
v -0.035356 0.079667 0.033012
v -0.035613 0.079941 0.032952
v -0.035356 0.079616 0.026717
v -0.035607 0.079883 0.026808
v -0.041801 0.079602 0.026352
v -0.041686 0.079867 0.026572
v -0.035781 0.079616 0.026275
v -0.035895 0.079880 0.026501
vn -0.0028 -1.0000 0.0004
vn -0.6904 0.0204 0.7231
vn -0.6899 0.0040 0.7239
vn -0.6898 0.0034 0.7240
vn -0.6905 -0.0348 0.7225
vn -0.6905 -0.0351 0.7225
vn 0.7225 0.0430 0.6901
vn 0.7226 0.0384 0.6902
vn 0.7227 0.0155 0.6910
vn 0.7227 0.0148 0.6910
vn -0.6962 -0.0648 0.7149
vn -0.6960 -0.0645 0.7151
vn 0.7223 -0.0200 0.6913
vn 0.7223 -0.0215 0.6913
vn -0.7065 -0.0597 0.7052
vn -0.7061 -0.0607 0.7055
vn 0.7216 -0.0434 0.6909
vn 0.7216 -0.0439 0.6909
vn -0.7262 -0.0065 -0.6874
vn -0.7261 -0.0083 -0.6876
vn -0.7177 -0.0649 -0.6933
vn -0.7179 -0.0639 -0.6932
vn 0.7203 0.0145 -0.6935
vn 0.7203 0.0151 -0.6935
vn 0.7209 -0.0278 -0.6925
vn 0.7209 -0.0279 -0.6924
vn -0.7040 -0.1042 -0.7025
vn -0.7041 -0.1042 -0.7025
vn 0.7217 -0.0661 -0.6891
vn 0.7217 -0.0652 -0.6892
vn -0.6906 -0.0992 -0.7164
vn -0.6906 -0.0991 -0.7165
vn 0.7224 -0.0735 -0.6876
vn 0.7224 -0.0742 -0.6875
vn -0.6841 -0.0823 -0.7247
vn 0.7228 -0.0674 -0.6878
vn 0.0191 0.0492 0.9986
vn 0.0160 0.0567 0.9983
vn 0.0190 0.0495 0.9986
vn 0.0239 0.0159 0.9996
vn 0.0239 0.0148 0.9996
vn 0.0243 -0.0335 0.9991
vn 0.0243 -0.0339 0.9991
vn 0.0194 -0.0606 0.9980
vn 0.0193 -0.0607 0.9980
vn -0.0132 0.0195 -0.9997
vn -0.0132 0.0192 -0.9997
vn -0.0077 -0.0395 -0.9992
vn -0.0079 -0.0384 -0.9992
vn 0.0041 -0.0923 -0.9957
vn 0.0039 -0.0919 -0.9958
vn 0.0184 -0.1026 -0.9945
vn 0.0180 -0.1032 -0.9945
vn 0.0254 -0.0934 -0.9953
vn 1.0000 -0.0000 -0.0000
vn -0.9989 -0.0460 0.0027
vn -0.9996 -0.0279 0.0009
vn -0.9990 -0.0453 0.0026
vn -0.9977 -0.0672 0.0041
vn -0.9977 -0.0673 0.0041
vn -0.9981 -0.0609 0.0028
vn -0.9981 -0.0614 0.0028
vn -0.9995 -0.0301 0.0009
vn -0.9995 -0.0315 0.0010
vn -0.0095 -0.0000 -1.0000
vn 0.7190 -0.0000 -0.6950
vn -1.0000 -0.0000 -0.0000
vn -0.7218 -0.0000 -0.6921
vn 0.0126 -0.0000 0.9999
vn 0.7296 -0.0000 0.6839
vn -0.7218 -0.0000 0.6921
vn -0.7370 0.6750 0.0348
vn -0.7364 0.6754 0.0395
vn -0.7352 0.6766 -0.0405
vn -0.7345 0.6772 -0.0442
vn -0.5573 0.6300 0.5408
vn -0.5496 0.6623 -0.5092
vn 0.0046 0.5934 0.8049
vn 0.5535 0.6380 0.5353
vn 0.7246 0.6884 0.0318
vn 0.7238 0.6889 0.0377
vn 0.7215 0.6909 -0.0460
vn 0.7223 0.6903 -0.0419
vn 0.5351 0.6729 -0.5107
vn -0.0110 0.6446 -0.7645
vn -0.7123 -0.0475 0.7003
vn 0.7213 -0.0485 0.6909
vn -0.7283 0.0228 -0.6849
vn 0.7201 0.0339 -0.6930
vn 0.0155 -0.0645 0.9978
vn -0.0140 0.0457 -0.9989
vn -0.9999 -0.0105 0.0002
vn 0.0009 1.0000 -0.0050
vn -0.0016 1.0000 -0.0071
vn 0.0003 1.0000 -0.0067
vn 0.0009 1.0000 -0.0061
vn -0.0073 1.0000 -0.0009
vn -0.0052 1.0000 -0.0003
vn -0.0060 1.0000 0.0001
vn -0.0072 1.0000 -0.0003
vn 0.0012 1.0000 -0.0092
vn -0.0016 1.0000 -0.0094
vn -0.0004 0.9999 -0.0103
vn 0.0003 0.9999 -0.0103
vn -0.0031 1.0000 -0.0007
vn -0.0020 1.0000 0.0001
vn -0.0022 1.0000 0.0002
vn -0.0028 1.0000 -0.0002
vt 0.481492 -0.109593
vt 0.467372 -0.105923
vt 0.333056 -0.105923
vt 0.310699 -0.105923
vt 0.310699 -0.261509
vt 0.293775 -0.287005
vt 0.453007 -0.287005
vt 0.481492 -0.289934
vt 0.675492 -0.109596
vt 0.667940 -0.109598
vt 0.667932 0.094079
vt 0.675489 0.094081
vt 0.667925 0.255800
vt 0.675485 0.255802
vt 0.159153 -0.105923
vt 0.174320 -0.105923
vt 0.174320 0.094084
vt 0.159153 0.094084
vt 0.174320 0.255805
vt 0.159153 0.255805
vt 0.667919 0.395489
vt 0.675482 0.395492
vt 0.174320 0.395495
vt 0.159153 0.395495
vt 0.667912 0.517472
vt 0.675479 0.517475
vt 0.174320 0.517478
vt 0.159153 0.517478
vt 0.481492 0.517478
vt 0.467372 0.517478
vt 0.467372 0.395495
vt 0.481492 0.395495
vt 0.333056 0.517478
vt 0.310699 0.517478
vt 0.310699 0.395495
vt 0.333056 0.395495
vt 0.467372 0.255805
vt 0.481492 0.255805
vt 0.310699 0.255805
vt 0.333056 0.255805
vt 0.467372 0.094084
vt 0.481492 0.094084
vt 0.310699 0.094084
vt 0.333056 0.094084
vt 0.841040 -0.109591
vt 0.841032 0.094086
vt 0.841025 0.255807
vt 0.841019 0.395496
vt 0.841012 0.517479
vt 0.481433 0.643965
vt 0.583228 0.643896
vt 0.583268 0.832916
vt 0.481481 0.833035
vt 0.667890 0.643929
vt 0.695575 0.643890
vt 0.695649 0.832772
vt 0.667921 0.832896
vt 0.216425 0.643934
vt 0.310691 0.643996
vt 0.310684 0.833009
vt 0.216445 0.832863
vt 0.205961 0.643929
vt 0.205981 0.832854
vt 0.333008 0.644002
vt 0.467324 0.643964
vt 0.467360 0.833039
vt 0.333042 0.833020
vt 0.675437 0.621608
vt 0.675457 0.613218
vt 0.481507 0.613288
vt 0.481434 0.621681
vt 0.583307 0.643924
vt 0.667895 0.621730
vt 0.667928 0.643950
vt 0.467377 0.613243
vt 0.467326 0.621721
vt 0.840948 0.621760
vt 0.734842 0.644021
vt 0.190602 0.614243
vt 0.159114 0.621757
vt 0.174295 0.621771
vt 0.174253 0.602940
vt 0.310700 0.621764
vt 0.310701 0.602898
vt 0.310573 0.597681
vt 0.333025 0.621790
vt 0.332946 0.597629
vt 0.467365 0.597538
s 1
usemtl stlpy_blinn
f 37/1/1 38/2/1 40/3/1 39/4/1 5/5/1 6/6/1 2/7/1 1/8/1
f 1/9/2 2/10/2 3/11/3 4/12/4
f 4/12/4 3/11/3 9/13/5 10/14/6
f 6/15/7 5/16/7 8/17/8 7/18/8
f 7/18/8 8/17/8 12/19/9 11/20/10
f 10/14/6 9/13/5 13/21/11 14/22/12
f 11/20/10 12/19/9 16/23/13 15/24/14
f 14/22/12 13/21/11 17/25/15 18/26/16
f 15/24/14 16/23/13 20/27/17 19/28/18
f 22/29/19 21/30/20 25/31/21 26/32/22
f 23/33/23 24/34/24 28/35/25 27/36/26
f 26/32/22 25/31/21 29/37/27 30/38/28
f 27/36/26 28/35/25 32/39/29 31/40/30
f 30/38/28 29/37/27 33/41/31 34/42/32
f 31/40/30 32/39/29 36/43/33 35/44/34
f 34/42/32 33/41/31 38/2/35 37/1/35
f 35/44/34 36/43/33 39/4/36 40/3/36
f 3/11/37 2/10/38 6/45/38 7/46/39
f 3/11/37 7/46/39 11/47/40 9/13/41
f 9/13/41 11/47/40 15/48/42 13/21/43
f 13/21/43 15/48/42 19/49/44 17/25/45
f 21/30/46 23/33/47 27/36/48 25/31/49
f 25/31/49 27/36/48 31/40/50 29/37/51
f 29/37/51 31/40/50 35/44/52 33/41/53
f 33/41/53 35/44/52 40/3/54 38/2/54
f 8/17/55 5/16/55 39/4/55 36/43/55
f 8/17/55 36/43/55 32/39/55 12/19/55
f 12/19/55 32/39/55 28/35/55 16/23/55
f 16/23/55 28/35/55 24/34/55 20/27/55
f 34/42/56 37/1/57 1/9/57 4/12/58
f 34/42/56 4/12/58 10/14/59 30/38/60
f 30/38/60 10/14/59 14/22/61 26/32/62
f 26/32/62 14/22/61 18/26/63 22/29/64
f 42/50/55 41/51/55 49/52/55 50/53/55
f 43/54/65 44/55/65 52/56/65 51/57/65
f 41/51/66 43/54/66 51/57/66 49/52/66
f 45/58/67 46/59/67 54/60/67 53/61/67
f 44/62/68 45/58/68 53/61/68 52/63/68
f 48/64/69 47/65/69 55/66/69 56/67/69
f 47/65/70 42/50/70 50/53/70 55/66/70
f 46/59/71 48/64/71 56/67/71 54/60/71
f 57/68/72 58/69/73 60/70/74 59/71/75
f 58/72/73 57/68/72 61/73/76 62/74/76
f 59/71/75 60/70/74 70/75/77 69/76/77
f 62/74/78 61/73/78 63/77/78 64/78/78
f 64/79/79 63/80/79 65/81/80 66/82/81
f 66/82/81 65/81/80 67/83/82 68/84/83
f 68/85/83 67/83/82 71/86/84 72/87/84
f 69/76/85 70/88/85 72/87/85 71/86/85
f 18/26/16 17/25/15 61/73/86 57/68/86
f 19/28/18 20/27/17 65/81/87 63/80/87
f 59/71/88 69/76/88 21/30/20 22/29/19
f 71/86/89 67/83/89 24/34/24 23/33/23
f 17/25/45 19/49/44 63/77/90 61/73/90
f 21/30/46 69/76/91 71/86/91 23/33/47
f 20/27/55 24/34/55 67/83/55 65/81/55
f 22/29/64 18/26/63 57/68/92 59/71/92
f 60/70/93 58/69/94 41/51/95 42/50/96
f 62/74/97 64/78/98 44/55/99 43/54/100
f 58/72/94 62/74/97 43/54/100 41/51/95
f 66/82/101 68/84/102 46/59/103 45/58/104
f 64/79/98 66/82/101 45/58/104 44/62/99
f 72/87/105 70/88/106 47/65/107 48/64/108
f 70/75/106 60/70/93 42/50/96 47/65/107
f 68/85/102 72/87/105 48/64/108 46/59/103
